<svg width="658" height="613" viewBox="0 0 658 613" fill="none" xmlns="http://www.w3.org/2000/svg">
<g clip-path="url(#clip0_14_437)">
<g filter="url(#filter0_d_14_437)">
<path d="M110.83 427.408C108.348 427.103 106.309 425.929 104.713 423.886C103.117 421.843 102.491 419.415 102.837 416.603L107.346 379.879L18.513 368.971C15.8662 368.646 13.7345 367.545 12.118 365.667C10.6872 363.645 9.94851 361.455 9.90203 359.098C10.021 356.762 10.9467 354.693 12.6793 352.891L126.723 236.421C127.693 235.365 128.797 234.577 130.036 234.057C131.461 233.392 133.166 233.182 135.151 233.426C137.798 233.751 139.827 235.007 141.237 237.195C142.833 239.239 143.459 241.666 143.114 244.478L128.337 364.825L147.94 367.232C150.587 367.557 152.739 368.493 154.396 370.039C156.053 371.586 156.678 374.014 156.272 377.322C156.008 379.473 154.855 381.346 152.811 382.942C150.789 384.373 148.454 384.926 145.807 384.601L126.204 382.194L121.695 418.918C121.35 421.731 120.156 423.935 118.113 425.531C116.069 427.127 113.642 427.753 110.83 427.408ZM30.1534 360.326L27.5935 352.455L109.479 362.509L122.549 256.059L126.872 261.879L30.1534 360.326Z" fill="#292D32" shape-rendering="crispEdges"/>
<path d="M107.346 379.879L110.324 380.244L110.689 377.267L107.711 376.901L107.346 379.879ZM12.118 365.667L9.66877 367.4L9.75127 367.517L9.84447 367.625L12.118 365.667ZM9.90203 359.098L6.90591 358.946L6.90052 359.052L6.90261 359.158L9.90203 359.098ZM12.6793 352.891L10.5357 350.792L10.5261 350.802L10.5165 350.812L12.6793 352.891ZM126.723 236.421L128.867 238.52L128.901 238.485L128.934 238.449L126.723 236.421ZM130.036 234.057L131.196 236.824L131.251 236.801L131.304 236.776L130.036 234.057ZM141.237 237.195L138.716 238.821L138.789 238.935L138.873 239.042L141.237 237.195ZM128.337 364.825L125.359 364.459L124.994 367.437L127.971 367.802L128.337 364.825ZM154.396 370.039L156.443 367.846L154.396 370.039ZM152.811 382.942L154.544 385.392L154.602 385.35L154.658 385.306L152.811 382.942ZM126.204 382.194L126.57 379.217L123.592 378.851L123.227 381.829L126.204 382.194ZM118.113 425.531L116.266 423.167L118.113 425.531ZM30.1534 360.326L27.3005 361.253L28.8294 365.954L32.2934 362.428L30.1534 360.326ZM27.5935 352.455L27.9591 349.477L23.2837 348.903L24.7406 353.383L27.5935 352.455ZM109.479 362.509L109.113 365.487L112.091 365.852L112.456 362.875L109.479 362.509ZM122.549 256.059L124.957 254.27L120.485 248.249L119.571 255.693L122.549 256.059ZM126.872 261.879L129.012 263.981L130.811 262.15L129.28 260.09L126.872 261.879ZM111.195 424.43C109.536 424.226 108.204 423.481 107.077 422.039L102.349 425.733C104.415 428.377 107.161 429.98 110.464 430.385L111.195 424.43ZM107.077 422.039C106.019 420.684 105.556 419.072 105.814 416.969L99.8591 416.237C99.4267 419.759 100.215 423.002 102.349 425.733L107.077 422.039ZM105.814 416.969L110.324 380.244L104.368 379.513L99.8591 416.237L105.814 416.969ZM107.711 376.901L18.8786 365.994L18.1474 371.949L106.98 382.856L107.711 376.901ZM18.8786 365.994C16.911 365.752 15.4821 364.977 14.3915 363.71L9.84447 367.625C11.987 370.113 14.8214 371.541 18.1474 371.949L18.8786 365.994ZM14.5672 363.935C13.4643 362.376 12.9355 360.764 12.9014 359.039L6.90261 359.158C6.96156 362.146 7.91001 364.913 9.66877 367.4L14.5672 363.935ZM12.8981 359.251C12.9777 357.688 13.5729 356.29 14.842 354.97L10.5165 350.812C8.32055 353.096 7.06422 355.836 6.90591 358.946L12.8981 359.251ZM14.8228 354.989L128.867 238.52L124.58 234.322L10.5357 350.792L14.8228 354.989ZM128.934 238.449C129.63 237.69 130.383 237.165 131.196 236.824L128.876 231.29C127.211 231.988 125.755 233.039 124.513 234.393L128.934 238.449ZM131.304 236.776C132.098 236.406 133.208 236.21 134.786 236.403L135.517 230.448C133.124 230.154 130.824 230.379 128.768 231.338L131.304 236.776ZM134.786 236.403C136.574 236.623 137.801 237.402 138.716 238.821L143.759 235.57C141.853 232.613 139.023 230.879 135.517 230.448L134.786 236.403ZM138.873 239.042C139.932 240.397 140.394 242.01 140.136 244.113L146.091 244.844C146.524 241.323 145.735 238.08 143.601 235.349L138.873 239.042ZM140.136 244.113L125.359 364.459L131.315 365.19L146.091 244.844L140.136 244.113ZM127.971 367.802L147.574 370.209L148.305 364.254L128.703 361.847L127.971 367.802ZM147.574 370.209C149.706 370.471 151.233 371.191 152.349 372.232L156.443 367.846C154.244 365.794 151.467 364.642 148.305 364.254L147.574 370.209ZM152.349 372.232C153.018 372.857 153.642 374.13 153.294 376.957L159.25 377.688C159.715 373.898 159.088 370.316 156.443 367.846L152.349 372.232ZM153.294 376.957C153.146 378.165 152.513 379.369 150.964 380.578L154.658 385.306C157.196 383.324 158.87 380.78 159.25 377.688L153.294 376.957ZM151.079 380.493C149.714 381.459 148.14 381.865 146.173 381.624L145.441 387.579C148.767 387.987 151.863 387.288 154.544 385.392L151.079 380.493ZM146.173 381.624L126.57 379.217L125.839 385.172L145.441 387.579L146.173 381.624ZM123.227 381.829L118.717 418.553L124.673 419.284L129.182 382.56L123.227 381.829ZM118.717 418.553C118.459 420.656 117.62 422.109 116.266 423.167L119.959 427.895C122.691 425.761 124.24 422.805 124.673 419.284L118.717 418.553ZM116.266 423.167C114.911 424.226 113.298 424.688 111.195 424.43L110.464 430.385C113.985 430.818 117.228 430.029 119.959 427.895L116.266 423.167ZM33.0063 359.398L30.4464 351.527L24.7406 353.383L27.3005 361.253L33.0063 359.398ZM27.2279 355.433L109.113 365.487L109.844 359.532L27.9591 349.477L27.2279 355.433ZM112.456 362.875L125.527 256.424L119.571 255.693L106.501 362.144L112.456 362.875ZM120.141 257.847L124.464 263.668L129.28 260.09L124.957 254.27L120.141 257.847ZM124.732 259.776L28.0134 358.223L32.2934 362.428L129.012 263.981L124.732 259.776Z" fill="#B9E3E1" fill-opacity="0.71"/>
</g>
<path d="M99.0576 175.615C97.5688 175.432 96.3455 174.728 95.3878 173.502C94.43 172.276 94.0547 170.82 94.2619 169.132L96.9674 147.098L43.6677 140.553C42.0796 140.358 40.8006 139.698 39.8307 138.571C38.9722 137.357 38.529 136.044 38.5011 134.63C38.5725 133.228 39.1279 131.986 40.1674 130.905L108.594 61.0231C109.176 60.3893 109.838 59.9165 110.582 59.6048C111.437 59.206 112.46 59.0797 113.651 59.226C115.239 59.421 116.456 60.1749 117.302 61.4878C118.26 62.7137 118.635 64.1703 118.428 65.8576L109.562 138.065L121.324 139.51C122.912 139.705 124.203 140.266 125.197 141.194C126.192 142.122 126.567 143.579 126.323 145.564C126.165 146.854 125.473 147.978 124.247 148.936C123.033 149.794 121.632 150.126 120.044 149.931L108.282 148.487L105.577 170.522C105.37 172.209 104.653 173.531 103.427 174.489C102.202 175.447 100.745 175.822 99.0576 175.615ZM50.6519 135.366L49.116 130.644L98.247 136.676L106.089 72.8057L108.683 76.2978L50.6519 135.366Z" fill="#292D32"/>
<path d="M96.9674 147.098L99.9451 147.463L100.311 144.486L97.333 144.12L96.9674 147.098ZM39.8307 138.571L37.3815 140.303L37.464 140.42L37.5572 140.528L39.8307 138.571ZM38.5011 134.63L35.505 134.477L35.4996 134.583L35.5017 134.689L38.5011 134.63ZM40.1674 130.905L38.0239 128.806L38.0143 128.816L38.0047 128.826L40.1674 130.905ZM108.594 61.0231L110.737 63.122L110.772 63.0872L110.804 63.0513L108.594 61.0231ZM110.582 59.6048L111.741 62.3715L111.796 62.3486L111.85 62.3236L110.582 59.6048ZM117.302 61.4878L114.781 63.1132L114.854 63.2276L114.938 63.3348L117.302 61.4878ZM109.562 138.065L106.584 137.7L106.219 140.677L109.196 141.043L109.562 138.065ZM125.197 141.194L127.244 139.001L127.244 139.001L125.197 141.194ZM124.247 148.936L125.979 151.385L126.037 151.344L126.094 151.3L124.247 148.936ZM108.282 148.487L108.648 145.509L105.67 145.144L105.305 148.121L108.282 148.487ZM103.427 174.489L101.58 172.125L103.427 174.489ZM50.6519 135.366L47.799 136.294L49.3279 140.994L52.792 137.468L50.6519 135.366ZM49.116 130.644L49.4816 127.666L44.8061 127.092L46.2631 131.571L49.116 130.644ZM98.247 136.676L97.8814 139.654L100.859 140.019L101.225 137.042L98.247 136.676ZM106.089 72.8057L108.498 71.0169L104.026 64.996L103.112 72.4401L106.089 72.8057ZM108.683 76.2978L110.823 78.4003L112.622 76.5694L111.091 74.509L108.683 76.2978ZM99.4232 172.637C98.7562 172.556 98.24 172.28 97.7518 171.655L93.0237 175.349C94.451 177.176 96.3814 178.309 98.692 178.593L99.4232 172.637ZM97.7518 171.655C97.3318 171.117 97.1194 170.476 97.2396 169.498L91.2843 168.767C90.99 171.163 91.5283 173.435 93.0237 175.349L97.7518 171.655ZM97.2396 169.498L99.9451 147.463L93.9898 146.732L91.2843 168.767L97.2396 169.498ZM97.333 144.12L44.0333 137.576L43.3021 143.531L96.6018 150.075L97.333 144.12ZM44.0333 137.576C43.1244 137.464 42.5482 137.129 42.1042 136.614L37.5572 140.528C39.053 142.266 41.0348 143.253 43.3021 143.531L44.0333 137.576ZM42.2799 136.839C41.7493 136.089 41.5159 135.352 41.5005 134.57L35.5017 134.689C35.542 136.735 36.195 138.626 37.3815 140.303L42.2799 136.839ZM41.4972 134.782C41.5292 134.154 41.7541 133.583 42.3302 132.984L38.0047 128.826C36.5018 130.389 35.6157 132.302 35.505 134.477L41.4972 134.782ZM42.311 133.004L110.737 63.122L106.45 58.9242L38.0239 128.806L42.311 133.004ZM110.804 63.0513C111.113 62.7148 111.424 62.5047 111.741 62.3715L109.422 56.8381C108.252 57.3283 107.238 58.0637 106.383 58.9949L110.804 63.0513ZM111.85 62.3236C112.073 62.2192 112.502 62.1074 113.285 62.2036L114.016 56.2483C112.417 56.052 110.8 56.1928 109.313 56.886L111.85 62.3236ZM113.285 62.2036C114.014 62.2931 114.43 62.5694 114.781 63.1132L119.824 59.8625C118.482 57.7805 116.463 56.5488 114.016 56.2483L113.285 62.2036ZM114.938 63.3348C115.358 63.8724 115.571 64.5137 115.45 65.492L121.406 66.2232C121.7 63.8268 121.162 61.555 119.666 59.6409L114.938 63.3348ZM115.45 65.492L106.584 137.7L112.54 138.431L121.406 66.2232L115.45 65.492ZM109.196 141.043L120.958 142.487L121.689 136.532L109.928 135.088L109.196 141.043ZM120.958 142.487C122.031 142.619 122.697 142.964 123.15 143.387L127.244 139.001C125.709 137.568 123.792 136.79 121.689 136.532L120.958 142.487ZM123.15 143.387C123.156 143.393 123.53 143.695 123.346 145.198L129.301 145.93C129.604 143.463 129.227 140.852 127.244 139.001L123.15 143.387ZM123.346 145.198C123.303 145.547 123.131 146.001 122.4 146.572L126.094 151.3C127.814 149.956 129.027 148.162 129.301 145.93L123.346 145.198ZM122.514 146.487C121.959 146.88 121.319 147.065 120.41 146.954L119.679 152.909C121.946 153.187 124.107 152.709 125.979 151.385L122.514 146.487ZM120.41 146.954L108.648 145.509L107.917 151.465L119.679 152.909L120.41 146.954ZM105.305 148.121L102.599 170.156L108.555 170.887L111.26 148.853L105.305 148.121ZM102.599 170.156C102.479 171.134 102.118 171.705 101.58 172.125L105.274 176.853C107.188 175.358 108.26 173.284 108.555 170.887L102.599 170.156ZM101.58 172.125C101.043 172.545 100.402 172.758 99.4232 172.637L98.692 178.593C101.088 178.887 103.36 178.349 105.274 176.853L101.58 172.125ZM53.5048 134.438L51.9689 129.716L46.2631 131.571L47.799 136.294L53.5048 134.438ZM48.7504 133.621L97.8814 139.654L98.6127 133.698L49.4816 127.666L48.7504 133.621ZM101.225 137.042L109.067 73.1713L103.112 72.4401L95.2694 136.31L101.225 137.042ZM103.681 74.5945L106.275 78.0866L111.091 74.509L108.498 71.0169L103.681 74.5945ZM106.543 74.1954L48.5119 133.263L52.792 137.468L110.823 78.4003L106.543 74.1954Z" fill="#B9E3E1" fill-opacity="0.71"/>
<path d="M361.889 170.619C360.403 170.828 359.04 170.464 357.797 169.528C356.555 168.592 355.815 167.282 355.579 165.599L352.489 143.615L299.312 151.088C297.727 151.311 296.321 151.004 295.092 150.167C293.949 149.216 293.181 148.062 292.788 146.704C292.494 145.331 292.709 143.988 293.433 142.674L341.442 57.4638C341.839 56.701 342.357 56.0728 342.994 55.5793C343.717 54.9728 344.673 54.5861 345.861 54.4191C347.445 54.1964 348.816 54.6096 349.973 55.6588C351.216 56.595 351.955 57.9048 352.192 59.5883L362.317 131.63L374.051 129.981C375.636 129.758 377.028 129.967 378.229 130.606C379.43 131.245 380.169 132.555 380.448 134.535C380.628 135.823 380.251 137.087 379.315 138.33C378.364 139.473 377.097 140.156 375.513 140.379L363.778 142.028L366.868 164.012C367.104 165.696 366.755 167.158 365.818 168.401C364.882 169.643 363.572 170.383 361.889 170.619ZM304.715 144.27L302.009 140.106L351.028 133.217L342.072 69.4931L345.481 72.1949L304.715 144.27Z" fill="#292D32"/>
<path d="M352.489 143.615L355.46 143.197L355.042 140.226L352.072 140.644L352.489 143.615ZM295.092 150.167L293.175 152.474L293.285 152.565L293.403 152.646L295.092 150.167ZM292.788 146.704L289.854 147.332L289.877 147.435L289.906 147.537L292.788 146.704ZM293.433 142.674L290.82 141.202L290.813 141.214L290.806 141.226L293.433 142.674ZM341.442 57.4638L344.055 58.9363L344.079 58.8939L344.102 58.8507L341.442 57.4638ZM342.994 55.5793L344.831 57.9515L344.878 57.9153L344.923 57.8772L342.994 55.5793ZM349.973 55.6588L347.959 57.8814L348.059 57.9728L348.168 58.0547L349.973 55.6588ZM362.317 131.63L359.346 132.048L359.764 135.019L362.734 134.601L362.317 131.63ZM378.229 130.606L379.639 127.958L379.639 127.958L378.229 130.606ZM379.315 138.33L381.622 140.247L381.668 140.192L381.711 140.135L379.315 138.33ZM363.778 142.028L363.361 139.057L360.39 139.475L360.807 142.446L363.778 142.028ZM365.818 168.401L363.422 166.595L365.818 168.401ZM304.715 144.27L302.2 145.905L304.893 150.049L307.327 145.747L304.715 144.27ZM302.009 140.106L301.592 137.135L296.927 137.791L299.494 141.741L302.009 140.106ZM351.028 133.217L351.445 136.188L354.416 135.77L353.999 132.799L351.028 133.217ZM342.072 69.4931L343.935 67.1419L338.057 62.4836L339.101 69.9106L342.072 69.4931ZM345.481 72.1949L348.092 73.6719L349.356 71.4379L347.344 69.8438L345.481 72.1949ZM361.471 167.648C360.806 167.742 360.236 167.609 359.603 167.132L355.992 171.924C357.843 173.319 360.001 173.914 362.306 173.59L361.471 167.648ZM359.603 167.132C359.058 166.722 358.687 166.157 358.549 165.181L352.608 166.016C352.944 168.407 354.052 170.462 355.992 171.924L359.603 167.132ZM358.549 165.181L355.46 143.197L349.518 144.032L352.608 166.016L358.549 165.181ZM352.072 140.644L298.894 148.117L299.729 154.059L352.907 146.585L352.072 140.644ZM298.894 148.117C297.987 148.245 297.344 148.071 296.782 147.687L293.403 152.646C295.297 153.937 297.467 154.377 299.729 154.059L298.894 148.117ZM297.01 147.859C296.303 147.272 295.887 146.621 295.67 145.87L289.906 147.537C290.475 149.503 291.595 151.161 293.175 152.474L297.01 147.859ZM295.721 146.075C295.59 145.46 295.659 144.851 296.061 144.123L290.806 141.226C289.759 143.125 289.398 145.202 289.854 147.332L295.721 146.075ZM296.047 144.147L344.055 58.9363L338.828 55.9912L290.82 141.202L296.047 144.147ZM344.102 58.8507C344.313 58.4458 344.558 58.1624 344.831 57.9515L341.158 53.2071C340.155 53.9832 339.366 54.9562 338.782 56.0768L344.102 58.8507ZM344.923 57.8772C345.112 57.7185 345.497 57.4997 346.278 57.3899L345.443 51.4483C343.848 51.6725 342.322 52.2271 341.066 53.2814L344.923 57.8772ZM346.278 57.3899C347.006 57.2876 347.479 57.4468 347.959 57.8814L351.988 53.4362C350.153 51.7725 347.885 51.1052 345.443 51.4483L346.278 57.3899ZM348.168 58.0547C348.713 58.4653 349.084 59.0298 349.221 60.0058L355.163 59.1708C354.827 56.7799 353.719 54.7247 351.779 53.2629L348.168 58.0547ZM349.221 60.0058L359.346 132.048L365.288 131.213L355.163 59.1708L349.221 60.0058ZM362.734 134.601L374.469 132.952L373.634 127.01L361.899 128.659L362.734 134.601ZM374.469 132.952C375.54 132.801 376.272 132.963 376.819 133.254L379.639 127.958C377.785 126.971 375.732 126.715 373.634 127.01L374.469 132.952ZM376.819 133.254C376.827 133.258 377.266 133.453 377.477 134.953L383.418 134.118C383.072 131.656 382.033 129.232 379.639 127.958L376.819 133.254ZM377.477 134.953C377.526 135.3 377.477 135.784 376.919 136.524L381.711 140.135C383.025 138.391 383.731 136.345 383.418 134.118L377.477 134.953ZM377.007 136.412C376.572 136.936 376.002 137.281 375.095 137.408L375.93 143.35C378.192 143.032 380.157 142.011 381.622 140.247L377.007 136.412ZM375.095 137.408L363.361 139.057L364.196 144.999L375.93 143.35L375.095 137.408ZM360.807 142.446L363.897 164.43L369.839 163.595L366.749 141.611L360.807 142.446ZM363.897 164.43C364.034 165.406 363.833 166.051 363.422 166.595L368.214 170.206C369.676 168.266 370.175 165.985 369.839 163.595L363.897 164.43ZM363.422 166.595C363.012 167.14 362.447 167.511 361.471 167.648L362.306 173.59C364.697 173.254 366.752 172.146 368.214 170.206L363.422 166.595ZM307.231 142.635L304.525 138.471L299.494 141.741L302.2 145.905L307.231 142.635ZM302.427 143.077L351.445 136.188L350.61 130.246L301.592 137.135L302.427 143.077ZM353.999 132.799L345.043 69.0756L339.101 69.9106L348.057 133.634L353.999 132.799ZM340.209 71.8443L343.618 74.5461L347.344 69.8438L343.935 67.1419L340.209 71.8443ZM342.87 70.718L302.104 142.793L307.327 145.747L348.092 73.6719L342.87 70.718Z" fill="#B9E3E1" fill-opacity="0.71"/>
<path d="M573.267 570.036C571.782 570.245 570.418 569.881 569.175 568.945C567.933 568.009 567.194 566.699 566.957 565.015L563.867 543.031L510.69 550.505C509.105 550.728 507.699 550.42 506.471 549.583C505.327 548.633 504.559 547.479 504.166 546.12C503.872 544.748 504.087 543.405 504.812 542.091L552.82 456.881C553.218 456.118 553.735 455.49 554.373 454.996C555.095 454.39 556.051 454.003 557.239 453.836C558.824 453.613 560.194 454.026 561.352 455.076C562.594 456.012 563.334 457.322 563.57 459.005L573.695 531.047L585.43 529.398C587.014 529.175 588.407 529.383 589.607 530.023C590.808 530.662 591.547 531.971 591.826 533.952C592.007 535.239 591.629 536.504 590.693 537.747C589.743 538.89 588.475 539.573 586.891 539.796L575.156 541.445L578.246 563.429C578.483 565.112 578.133 566.575 577.197 567.818C576.26 569.06 574.951 569.799 573.267 570.036ZM516.094 543.687L513.388 539.523L562.406 532.634L553.45 468.91L556.859 471.612L516.094 543.687Z" fill="#292D32"/>
<path d="M563.867 543.031L566.838 542.614L566.421 539.643L563.45 540.061L563.867 543.031ZM506.471 549.583L504.553 551.891L504.663 551.982L504.781 552.062L506.471 549.583ZM504.166 546.12L501.233 546.748L501.255 546.852L501.284 546.954L504.166 546.12ZM504.812 542.091L502.198 540.619L502.191 540.631L502.185 540.643L504.812 542.091ZM552.82 456.881L555.434 458.353L555.457 458.311L555.48 458.267L552.82 456.881ZM554.373 454.996L556.209 457.368L556.256 457.332L556.301 457.294L554.373 454.996ZM561.352 455.076L559.337 457.298L559.438 457.39L559.546 457.471L561.352 455.076ZM573.695 531.047L570.724 531.465L571.142 534.435L574.113 534.018L573.695 531.047ZM589.607 530.023L591.017 527.374L591.017 527.374L589.607 530.023ZM590.693 537.747L593 539.664L593.046 539.609L593.089 539.552L590.693 537.747ZM575.156 541.445L574.739 538.474L571.768 538.892L572.186 541.862L575.156 541.445ZM577.197 567.818L574.801 566.012L577.197 567.818ZM516.094 543.687L513.578 545.321L516.271 549.466L518.705 545.164L516.094 543.687ZM513.388 539.523L512.97 536.552L508.305 537.207L510.872 541.157L513.388 539.523ZM562.406 532.634L562.823 535.604L565.794 535.187L565.377 532.216L562.406 532.634ZM553.45 468.91L555.314 466.559L549.436 461.9L550.479 469.327L553.45 468.91ZM556.859 471.612L559.471 473.089L560.734 470.855L558.723 469.261L556.859 471.612ZM572.85 567.065C572.184 567.159 571.614 567.026 570.981 566.549L567.37 571.341C569.221 572.736 571.379 573.331 573.685 573.007L572.85 567.065ZM570.981 566.549C570.436 566.138 570.065 565.574 569.928 564.598L563.986 565.433C564.322 567.824 565.43 569.879 567.37 571.341L570.981 566.549ZM569.928 564.598L566.838 542.614L560.896 543.449L563.986 565.433L569.928 564.598ZM563.45 540.061L510.272 547.534L511.107 553.476L564.285 546.002L563.45 540.061ZM510.272 547.534C509.366 547.662 508.722 547.487 508.16 547.104L504.781 552.062C506.676 553.353 508.845 553.794 511.107 553.476L510.272 547.534ZM508.388 547.276C507.681 546.689 507.265 546.038 507.048 545.287L501.284 546.954C501.853 548.919 502.973 550.578 504.553 551.891L508.388 547.276ZM507.1 545.492C506.968 544.877 507.037 544.268 507.439 543.54L502.185 540.643C501.137 542.542 500.777 544.619 501.233 546.748L507.1 545.492ZM507.425 543.564L555.434 458.353L550.206 455.408L502.198 540.619L507.425 543.564ZM555.48 458.267C555.691 457.863 555.937 457.579 556.209 457.368L552.536 452.624C551.534 453.4 550.744 454.373 550.16 455.494L555.48 458.267ZM556.301 457.294C556.49 457.135 556.875 456.916 557.657 456.807L556.822 450.865C555.226 451.089 553.7 451.644 552.444 452.698L556.301 457.294ZM557.657 456.807C558.384 456.704 558.857 456.864 559.337 457.298L563.367 452.853C561.531 451.189 559.263 450.522 556.822 450.865L557.657 456.807ZM559.546 457.471C560.091 457.882 560.462 458.447 560.599 459.423L566.541 458.588C566.205 456.197 565.097 454.141 563.157 452.68L559.546 457.471ZM560.599 459.423L570.724 531.465L576.666 530.63L566.541 458.588L560.599 459.423ZM574.113 534.018L585.847 532.369L585.012 526.427L573.278 528.076L574.113 534.018ZM585.847 532.369C586.918 532.218 587.65 532.379 588.198 532.671L591.017 527.374C589.163 526.387 587.11 526.132 585.012 526.427L585.847 532.369ZM588.198 532.671C588.205 532.675 588.644 532.87 588.855 534.37L594.797 533.534C594.451 531.073 593.411 528.649 591.017 527.374L588.198 532.671ZM588.855 534.37C588.904 534.717 588.855 535.2 588.297 535.941L593.089 539.552C594.403 537.808 595.11 535.761 594.797 533.534L588.855 534.37ZM588.386 535.829C587.951 536.353 587.38 536.697 586.474 536.825L587.309 542.766C589.571 542.449 591.535 541.427 593 539.664L588.386 535.829ZM586.474 536.825L574.739 538.474L575.574 544.416L587.309 542.766L586.474 536.825ZM572.186 541.862L575.275 563.846L581.217 563.011L578.127 541.027L572.186 541.862ZM575.275 563.846C575.412 564.822 575.211 565.467 574.801 566.012L579.592 569.623C581.054 567.683 581.553 565.402 581.217 563.011L575.275 563.846ZM574.801 566.012C574.39 566.557 573.826 566.928 572.85 567.065L573.685 573.007C576.075 572.671 578.131 571.563 579.592 569.623L574.801 566.012ZM518.609 542.052L515.903 537.888L510.872 541.157L513.578 545.321L518.609 542.052ZM513.805 542.493L562.823 535.604L561.988 529.663L512.97 536.552L513.805 542.493ZM565.377 532.216L556.421 468.492L550.479 469.327L559.435 533.051L565.377 532.216ZM551.587 471.261L554.996 473.963L558.723 469.261L555.314 466.559L551.587 471.261ZM554.248 470.135L513.482 542.21L518.705 545.164L559.471 473.089L554.248 470.135Z" fill="#B9E3E1" fill-opacity="0.71"/>
<g filter="url(#filter1_d_14_437)">
<path d="M544.478 406.834C542.493 406.59 540.862 405.651 539.585 404.017C538.308 402.382 537.807 400.44 538.084 398.19L541.691 368.811L470.625 360.085C468.507 359.825 466.802 358.944 465.509 357.442C464.364 355.824 463.773 354.072 463.736 352.187C463.831 350.318 464.572 348.662 465.958 347.221L557.193 254.045C557.968 253.2 558.852 252.569 559.843 252.154C560.983 251.622 562.347 251.454 563.935 251.649C566.053 251.909 567.676 252.914 568.804 254.664C570.081 256.299 570.581 258.241 570.305 260.491L558.484 356.768L574.166 358.693C576.283 358.953 578.005 359.702 579.331 360.939C580.656 362.177 581.157 364.119 580.832 366.766C580.621 368.486 579.698 369.985 578.063 371.262C576.445 372.407 574.577 372.849 572.46 372.589L556.778 370.663L553.17 400.043C552.894 402.293 551.939 404.056 550.304 405.333C548.67 406.61 546.728 407.11 544.478 406.834ZM479.937 353.169L477.889 346.872L543.397 354.915L553.853 269.755L557.312 274.411L479.937 353.169Z" fill="#292D32" shape-rendering="crispEdges"/>
<path d="M541.691 368.811L544.669 369.177L545.034 366.199L542.056 365.833L541.691 368.811ZM465.509 357.442L463.059 359.174L463.142 359.291L463.235 359.399L465.509 357.442ZM463.736 352.187L460.74 352.034L460.734 352.14L460.736 352.246L463.736 352.187ZM465.958 347.221L463.814 345.122L463.804 345.131L463.795 345.141L465.958 347.221ZM557.193 254.045L559.336 256.144L559.371 256.109L559.403 256.073L557.193 254.045ZM559.843 252.154L561.003 254.92L561.058 254.897L561.111 254.872L559.843 252.154ZM568.804 254.664L566.282 256.29L566.356 256.404L566.44 256.511L568.804 254.664ZM558.484 356.768L555.506 356.402L555.141 359.38L558.118 359.745L558.484 356.768ZM579.331 360.939L581.378 358.746L581.378 358.746L579.331 360.939ZM578.063 371.262L579.796 373.711L579.854 373.67L579.91 373.626L578.063 371.262ZM556.778 370.663L557.143 367.686L554.166 367.32L553.8 370.298L556.778 370.663ZM550.304 405.333L548.457 402.969L548.457 402.969L550.304 405.333ZM479.937 353.168L477.084 354.096L478.613 358.797L482.077 355.271L479.937 353.168ZM477.889 346.872L478.255 343.894L473.579 343.32L475.036 347.8L477.889 346.872ZM543.397 354.915L543.031 357.893L546.009 358.259L546.375 355.281L543.397 354.915ZM553.853 269.755L556.262 267.966L551.79 261.945L550.876 269.389L553.853 269.755ZM557.312 274.411L559.452 276.514L561.251 274.683L559.72 272.622L557.312 274.411ZM544.843 403.856C543.68 403.714 542.756 403.203 541.949 402.17L537.221 405.864C538.967 408.099 541.305 409.467 544.112 409.812L544.843 403.856ZM541.949 402.17C541.209 401.224 540.872 400.097 541.061 398.556L535.106 397.825C534.743 400.784 535.406 403.541 537.221 405.864L541.949 402.17ZM541.061 398.556L544.669 369.177L538.713 368.445L535.106 397.825L541.061 398.556ZM542.056 365.833L470.99 357.108L470.259 363.063L541.325 371.789L542.056 365.833ZM470.99 357.108C469.552 356.931 468.549 356.376 467.782 355.485L463.235 359.399C465.054 361.512 467.462 362.719 470.259 363.063L470.99 357.108ZM467.958 355.71C467.141 354.555 466.76 353.381 466.735 352.128L460.736 352.246C460.786 354.763 461.587 357.093 463.059 359.174L467.958 355.71ZM466.732 352.339C466.788 351.244 467.198 350.259 468.12 349.3L463.795 345.141C461.945 347.065 460.874 349.392 460.74 352.034L466.732 352.339ZM468.101 349.319L559.336 256.144L555.049 251.946L463.814 345.122L468.101 349.319ZM559.403 256.073C559.906 255.525 560.437 255.157 561.003 254.92L558.683 249.387C557.266 249.981 556.031 250.874 554.982 252.017L559.403 256.073ZM561.111 254.872C561.62 254.635 562.389 254.481 563.57 254.626L564.301 248.671C562.305 248.426 560.346 248.609 558.575 249.435L561.111 254.872ZM563.57 254.626C564.828 254.781 565.65 255.308 566.282 256.29L571.325 253.039C569.701 250.519 567.277 249.036 564.301 248.671L563.57 254.626ZM566.44 256.511C567.179 257.458 567.517 258.584 567.327 260.125L573.283 260.856C573.646 257.898 572.983 255.14 571.168 252.817L566.44 256.511ZM567.327 260.125L555.506 356.402L561.461 357.133L573.283 260.856L567.327 260.125ZM558.118 359.745L573.8 361.671L574.532 355.716L558.849 353.79L558.118 359.745ZM573.8 361.671C575.403 361.868 576.499 362.4 577.284 363.133L581.378 358.746C579.511 357.004 577.164 356.039 574.532 355.716L573.8 361.671ZM577.284 363.133C577.621 363.448 578.12 364.235 577.854 366.4L583.81 367.131C584.194 364.003 583.692 360.906 581.378 358.746L577.284 363.133ZM577.854 366.4C577.759 367.179 577.356 368.008 576.216 368.898L579.91 373.626C582.04 371.962 583.483 369.794 583.81 367.131L577.854 366.4ZM576.331 368.813C575.371 369.492 574.264 369.788 572.825 369.611L572.094 375.567C574.891 375.91 577.519 375.321 579.796 373.711L576.331 368.813ZM572.825 369.611L557.143 367.686L556.412 373.641L572.094 375.567L572.825 369.611ZM553.8 370.298L550.193 399.677L556.148 400.408L559.755 371.029L553.8 370.298ZM550.193 399.677C550.003 401.218 549.403 402.23 548.457 402.969L552.151 407.697C554.474 405.882 555.785 403.367 556.148 400.408L550.193 399.677ZM548.457 402.969C547.511 403.708 546.384 404.046 544.843 403.856L544.112 409.812C547.071 410.175 549.828 409.512 552.151 407.697L548.457 402.969ZM482.79 352.241L480.742 345.944L475.036 347.8L477.084 354.096L482.79 352.241ZM477.523 349.85L543.031 357.893L543.763 351.938L478.255 343.894L477.523 349.85ZM546.375 355.281L556.831 270.121L550.876 269.389L540.419 354.55L546.375 355.281ZM551.445 271.544L554.903 276.2L559.72 272.622L556.262 267.966L551.445 271.544ZM555.172 272.309L477.797 351.066L482.077 355.271L559.452 276.514L555.172 272.309Z" fill="#B9E3E1" fill-opacity="0.71"/>
</g>
<g filter="url(#filter2_d_14_437)">
<path d="M322.479 420.733C310.184 421.7 299.326 418.626 289.905 411.51C280.484 404.394 272.879 393.791 267.089 379.702C261.452 365.434 257.83 348.081 256.221 327.644C254.639 307.54 255.516 290 258.851 275.026C262.352 260.038 268.199 248.293 276.391 239.791C284.582 231.289 294.825 226.554 307.121 225.586C319.748 224.592 330.696 227.743 339.964 235.038C349.384 242.154 356.913 252.847 362.55 267.115C368.353 281.37 372.039 298.467 373.608 318.406C375.204 338.676 374.25 356.305 370.749 371.293C367.4 386.101 361.637 397.84 353.459 406.508C345.433 414.997 335.107 419.739 322.479 420.733ZM320.949 401.293C329.921 400.587 337.054 396.682 342.346 389.578C347.625 382.308 351.213 372.663 353.109 360.644C355.005 348.625 355.358 335.055 354.168 319.936C352.991 304.982 350.45 291.807 346.544 280.412C342.791 268.837 337.739 259.873 331.387 253.518C325.036 247.164 317.457 244.333 308.651 245.026C299.845 245.719 292.802 249.7 287.523 256.97C282.397 264.061 278.802 273.623 276.74 285.655C274.844 297.674 274.484 311.16 275.661 326.114C276.864 341.4 279.342 354.831 283.095 366.405C287.001 377.8 292.047 386.682 298.232 393.05C304.571 399.238 312.143 401.986 320.949 401.293Z" fill="#292D32" shape-rendering="crispEdges"/>
<path d="M267.089 379.702L264.299 380.804L264.307 380.823L264.314 380.842L267.089 379.702ZM258.851 275.026L255.93 274.343L255.926 274.358L255.923 274.373L258.851 275.026ZM276.391 239.791L274.23 237.709L274.23 237.709L276.391 239.791ZM339.964 235.038L338.108 237.396L338.132 237.414L338.155 237.432L339.964 235.038ZM362.55 267.115L359.76 268.217L359.766 268.232L359.771 268.246L362.55 267.115ZM370.749 371.293L367.828 370.61L367.825 370.621L367.823 370.631L370.749 371.293ZM353.459 406.508L355.639 408.569L355.641 408.567L353.459 406.508ZM342.346 389.578L344.752 391.37L344.763 391.355L344.773 391.341L342.346 389.578ZM353.109 360.644L356.072 361.112L353.109 360.644ZM346.544 280.412L343.69 281.337L343.698 281.361L343.706 281.385L346.544 280.412ZM287.523 256.97L285.095 255.208L285.092 255.213L287.523 256.97ZM276.74 285.655L273.783 285.148L273.78 285.168L273.777 285.187L276.74 285.655ZM283.095 366.405L280.241 367.33L280.249 367.354L280.257 367.378L283.095 366.405ZM298.232 393.05L296.08 395.14L296.108 395.168L296.137 395.196L298.232 393.05ZM322.244 417.742C310.644 418.655 300.521 415.769 291.713 409.116L288.097 413.904C298.131 421.483 309.724 424.746 322.714 423.723L322.244 417.742ZM291.713 409.116C282.829 402.405 275.508 392.295 269.864 378.562L264.314 380.842C270.25 395.287 278.14 406.383 288.097 413.904L291.713 409.116ZM269.879 378.6C264.382 364.684 260.804 347.642 259.212 327.409L253.23 327.88C254.855 348.52 258.523 366.183 264.299 380.804L269.879 378.6ZM259.212 327.409C257.646 307.514 258.525 290.286 261.779 275.678L255.923 274.373C252.506 289.714 251.632 307.565 253.23 327.88L259.212 327.409ZM261.772 275.708C265.187 261.091 270.832 249.884 278.551 241.872L274.23 237.709C265.566 246.702 259.518 258.985 255.93 274.343L261.772 275.708ZM278.551 241.872C286.209 233.924 295.756 229.49 307.356 228.577L306.885 222.595C293.895 223.618 282.955 228.654 274.23 237.709L278.551 241.872ZM307.356 228.577C319.293 227.637 329.479 230.603 338.108 237.396L341.819 232.681C331.913 224.883 320.204 221.547 306.885 222.595L307.356 228.577ZM338.155 237.432C347.023 244.131 354.266 254.311 359.76 268.217L365.34 266.013C359.56 251.382 351.746 240.178 341.772 232.645L338.155 237.432ZM359.771 268.246C365.429 282.145 369.066 298.923 370.617 318.641L376.599 318.17C375.012 298.011 371.277 280.596 365.329 265.984L359.771 268.246ZM370.617 318.641C372.196 338.697 371.241 356.002 367.828 370.61L373.67 371.975C377.26 356.609 378.211 338.656 376.599 318.17L370.617 318.641ZM367.823 370.631C364.561 385.057 358.998 396.265 351.276 404.449L355.641 408.567C364.276 399.414 370.24 387.146 373.675 371.955L367.823 370.631ZM351.279 404.447C343.809 412.349 334.198 416.801 322.244 417.742L322.714 423.723C336.015 422.677 347.058 417.646 355.639 408.569L351.279 404.447ZM321.185 404.283C331.003 403.511 338.933 399.18 344.752 391.37L339.94 387.786C335.174 394.183 328.839 397.662 320.714 398.302L321.185 404.283ZM344.773 391.341C350.412 383.576 354.127 373.441 356.072 361.112L350.146 360.177C348.298 371.886 344.839 381.04 339.919 387.815L344.773 391.341ZM356.072 361.112C358.013 348.811 358.363 335 357.159 319.7L351.178 320.171C352.353 335.111 351.998 348.439 350.146 360.177L356.072 361.112ZM357.159 319.7C355.967 304.554 353.387 291.123 349.382 279.439L343.706 281.385C347.513 292.492 350.016 305.41 351.178 320.171L357.159 319.7ZM349.398 279.487C345.548 267.613 340.293 258.184 333.509 251.397L329.265 255.639C335.185 261.561 340.034 270.061 343.69 281.337L349.398 279.487ZM333.509 251.397C326.549 244.434 318.114 241.272 308.415 242.035L308.886 248.017C316.8 247.394 323.522 249.893 329.265 255.639L333.509 251.397ZM308.415 242.035C298.717 242.798 290.88 247.241 285.095 255.208L289.95 258.733C294.724 252.16 300.972 248.639 308.886 248.017L308.415 242.035ZM285.092 255.213C279.612 262.792 275.894 272.832 273.783 285.148L279.697 286.162C281.711 274.413 285.181 265.331 289.954 258.728L285.092 255.213ZM273.777 285.187C271.837 297.485 271.479 311.213 272.67 326.35L278.652 325.879C277.489 311.108 277.851 297.863 279.703 286.122L273.777 285.187ZM272.67 326.35C273.887 341.813 276.4 355.483 280.241 367.33L285.949 365.48C282.284 354.178 279.841 340.988 278.652 325.879L272.67 326.35ZM280.257 367.378C284.258 379.05 289.497 388.363 296.08 395.14L300.384 390.959C294.597 385.001 289.744 376.551 285.933 365.432L280.257 367.378ZM296.137 395.196C303.092 401.987 311.513 405.045 321.185 404.283L320.714 398.302C312.773 398.927 306.05 396.489 300.328 390.903L296.137 395.196Z" fill="#B9E3E1" fill-opacity="0.71"/>
</g>
<path d="M538.059 164.723C533.141 165.11 528.798 163.881 525.03 161.034C521.261 158.188 518.219 153.947 515.903 148.311C513.649 142.604 512.2 135.663 511.556 127.488C510.923 119.446 511.274 112.43 512.608 106.44C514.009 100.445 516.347 95.7475 519.624 92.3466C522.9 88.9457 526.998 87.0517 531.916 86.6646C536.967 86.2671 541.346 87.5274 545.053 90.4455C548.821 93.292 551.833 97.5689 554.088 103.276C556.409 108.978 557.883 115.817 558.511 123.792C559.149 131.901 558.768 138.952 557.367 144.947C556.028 150.871 553.722 155.566 550.451 159.033C547.241 162.429 543.11 164.326 538.059 164.723ZM537.447 156.947C541.036 156.665 543.889 155.103 546.006 152.261C548.118 149.353 549.553 145.496 550.311 140.688C551.07 135.88 551.211 130.452 550.735 124.404C550.264 118.423 549.248 113.153 547.685 108.595C546.184 103.965 544.163 100.379 541.623 97.8375C539.082 95.2957 536.05 94.1634 532.528 94.4406C529.006 94.7178 526.188 96.3104 524.077 99.2184C522.026 102.055 520.589 105.879 519.764 110.692C519.005 115.5 518.861 120.894 519.332 126.876C519.813 132.99 520.805 138.362 522.306 142.992C523.868 147.55 525.886 151.103 528.361 153.65C530.896 156.125 533.925 157.225 537.447 156.947Z" fill="#292D32"/>
<path d="M515.903 148.311L513.113 149.413L513.121 149.432L513.128 149.451L515.903 148.311ZM512.608 106.44L509.687 105.758L509.683 105.773L509.68 105.788L512.608 106.44ZM519.624 92.3466L517.463 90.2651L519.624 92.3466ZM545.053 90.4456L543.198 92.8028L543.221 92.8213L543.245 92.8394L545.053 90.4456ZM554.088 103.276L551.297 104.379L551.303 104.393L551.309 104.407L554.088 103.276ZM557.367 144.947L554.446 144.265L554.443 144.275L554.441 144.286L557.367 144.947ZM550.451 159.033L552.631 161.094L552.633 161.092L550.451 159.033ZM546.006 152.261L548.412 154.054L548.423 154.039L548.434 154.024L546.006 152.261ZM550.311 140.688L553.275 141.155L550.311 140.688ZM547.685 108.595L544.831 109.52L544.839 109.544L544.847 109.568L547.685 108.595ZM541.623 97.8375L539.501 99.9583L541.623 97.8375ZM524.077 99.2184L521.649 97.4556L521.646 97.4608L524.077 99.2184ZM519.764 110.692L516.807 110.185L516.803 110.205L516.8 110.225L519.764 110.692ZM522.306 142.992L519.452 143.918L519.46 143.941L519.468 143.965L522.306 142.992ZM528.361 153.65L526.209 155.74L526.236 155.769L526.265 155.797L528.361 153.65ZM537.824 161.733C533.601 162.065 529.993 161.024 526.838 158.64L523.221 163.428C527.603 166.738 532.681 168.156 538.295 167.714L537.824 161.733ZM526.838 158.64C523.606 156.199 520.848 152.451 518.678 147.171L513.128 149.451C515.591 155.443 518.917 160.177 523.221 163.428L526.838 158.64ZM518.693 147.209C516.578 141.854 515.174 135.223 514.547 127.252L508.565 127.723C509.225 136.102 510.719 143.353 513.113 149.413L518.693 147.209ZM514.547 127.252C513.931 119.42 514.284 112.716 515.536 107.093L509.68 105.788C508.264 112.144 507.916 119.472 508.565 127.723L514.547 127.252ZM515.529 107.123C516.844 101.498 518.98 97.3385 521.784 94.428L517.463 90.2651C513.714 94.1565 511.174 99.3927 509.687 105.758L515.529 107.123ZM521.784 94.428C524.528 91.5806 527.929 89.9877 532.151 89.6554L531.681 83.6739C526.067 84.1157 521.273 86.3107 517.463 90.2651L521.784 94.428ZM532.151 89.6554C536.511 89.3122 540.129 90.3875 543.198 92.8028L546.909 88.0883C542.563 84.6673 537.423 83.222 531.681 83.6739L532.151 89.6554ZM543.245 92.8394C546.46 95.2681 549.186 99.0333 551.297 104.379L556.878 102.174C554.48 96.1045 551.183 91.3159 546.861 88.0517L543.245 92.8394ZM551.309 104.407C553.485 109.753 554.91 116.273 555.52 124.028L561.502 123.557C560.857 115.361 559.333 108.204 556.866 102.145L551.309 104.407ZM555.52 124.028C556.141 131.921 555.758 138.649 554.446 144.265L560.289 145.63C561.778 139.256 562.157 131.88 561.502 123.557L555.52 124.028ZM554.441 144.286C553.188 149.826 551.084 153.991 548.269 156.975L552.633 161.092C556.361 157.141 558.867 151.915 560.293 145.609L554.441 144.286ZM548.271 156.973C545.616 159.781 542.202 161.388 537.824 161.733L538.295 167.714C544.019 167.263 548.865 165.078 552.631 161.094L548.271 156.973ZM537.683 159.938C542.118 159.589 545.769 157.601 548.412 154.054L543.6 150.469C542.01 152.604 539.954 153.741 537.212 153.957L537.683 159.938ZM548.434 154.024C550.904 150.622 552.467 146.273 553.275 141.155L547.348 140.22C546.638 144.718 545.331 148.085 543.579 150.499L548.434 154.024ZM553.275 141.155C554.077 136.067 554.216 130.397 553.726 124.169L547.744 124.64C548.206 130.508 548.062 135.694 547.348 140.22L553.275 141.155ZM553.726 124.169C553.24 117.995 552.184 112.469 550.523 107.622L544.847 109.568C546.311 113.838 547.289 118.851 547.744 124.64L553.726 124.169ZM550.539 107.67C548.941 102.741 546.717 98.6909 543.744 95.7167L539.501 99.9583C541.609 102.068 543.427 105.189 544.831 109.52L550.539 107.67ZM543.744 95.7167C540.595 92.5662 536.707 91.1024 532.293 91.4498L532.763 97.4313C535.393 97.2243 537.568 98.0251 539.501 99.9583L543.744 95.7167ZM532.293 91.4498C527.878 91.7973 524.267 93.8513 521.649 97.4556L526.504 100.981C528.11 98.7695 530.133 97.6383 532.763 97.4313L532.293 91.4498ZM521.646 97.4608C519.242 100.785 517.68 105.089 516.807 110.185L522.721 111.199C523.497 106.67 524.81 103.324 526.508 100.976L521.646 97.4608ZM516.8 110.225C515.998 115.311 515.856 120.947 516.341 127.111L522.323 126.641C521.866 120.842 522.013 115.688 522.727 111.16L516.8 110.225ZM516.341 127.111C516.836 133.403 517.862 139.015 519.452 143.918L525.159 142.067C523.747 137.71 522.79 132.578 522.323 126.641L516.341 127.111ZM519.468 143.965C521.125 148.8 523.337 152.784 526.209 155.74L530.513 151.56C528.436 149.422 526.611 146.3 525.144 142.019L519.468 143.965ZM526.265 155.797C529.417 158.874 533.295 160.283 537.683 159.938L537.212 153.957C534.555 154.166 532.375 153.377 530.456 151.504L526.265 155.797Z" fill="#B9E3E1" fill-opacity="0.71"/>
<path d="M102.086 590.763C94.7085 591.343 88.1937 589.499 82.5413 585.229C76.8888 580.959 72.3257 574.598 68.8517 566.144C65.4696 557.583 63.296 547.172 62.3309 534.91C61.3816 522.847 61.9075 512.323 63.9088 503.339C66.0097 494.346 69.5176 487.299 74.4325 482.198C79.3474 477.096 85.4935 474.255 92.8707 473.675C100.447 473.079 107.016 474.969 112.576 479.346C118.229 483.616 122.746 490.031 126.128 498.592C129.61 507.145 131.822 517.404 132.763 529.367C133.72 541.529 133.149 552.106 131.048 561.099C129.038 569.984 125.58 577.027 120.673 582.228C115.858 587.322 109.662 590.166 102.086 590.763ZM101.168 579.099C106.551 578.675 110.83 576.332 114.006 572.07C117.173 567.708 119.326 561.921 120.464 554.71C121.601 547.498 121.813 539.356 121.099 530.285C120.393 521.312 118.868 513.408 116.525 506.57C114.273 499.626 111.241 494.247 107.43 490.434C103.62 486.621 99.0723 484.923 93.7886 485.339C88.505 485.755 84.2794 488.143 81.1118 492.505C78.0362 496.76 75.8796 502.497 74.6422 509.716C73.5045 516.928 73.2887 525.019 73.9949 533.992C74.7167 543.163 76.2035 551.222 78.4553 558.166C80.799 565.003 83.8264 570.332 87.5376 574.153C91.3407 577.866 95.884 579.515 101.168 579.099Z" fill="#292D32"/>
<path d="M68.8517 566.144L66.0615 567.247L66.0691 567.266L66.0769 567.285L68.8517 566.144ZM63.9088 503.339L60.9874 502.656L60.9839 502.671L60.9805 502.686L63.9088 503.339ZM74.4325 482.198L72.2721 480.116L72.2721 480.116L74.4325 482.198ZM112.576 479.346L110.721 481.703L110.744 481.722L110.768 481.74L112.576 479.346ZM126.128 498.592L123.338 499.695L123.344 499.709L123.35 499.723L126.128 498.592ZM131.048 561.099L128.126 560.416L128.124 560.427L128.121 560.437L131.048 561.099ZM120.673 582.228L122.853 584.289L122.855 584.287L120.673 582.228ZM114.006 572.07L116.412 573.862L116.423 573.847L116.433 573.833L114.006 572.07ZM120.464 554.71L123.427 555.177L120.464 554.71ZM116.525 506.57L113.671 507.496L113.679 507.519L113.687 507.543L116.525 506.57ZM81.1118 492.505L78.6844 490.743L78.6806 490.748L81.1118 492.505ZM74.6422 509.716L71.6854 509.209L71.682 509.229L71.6789 509.249L74.6422 509.716ZM78.4553 558.166L75.6016 559.092L75.6093 559.115L75.6174 559.139L78.4553 558.166ZM87.5376 574.153L85.3857 576.243L85.4134 576.272L85.4419 576.3L87.5376 574.153ZM101.85 587.772C95.1687 588.298 89.3886 586.642 84.3495 582.835L80.7331 587.623C86.9988 592.356 94.2483 594.389 102.321 593.754L101.85 587.772ZM84.3495 582.835C79.233 578.971 74.9544 573.102 71.6265 565.004L66.0769 567.285C69.6969 576.094 74.5447 582.948 80.7331 587.623L84.3495 582.835ZM71.6419 565.042C68.3991 556.834 66.2707 546.732 65.3217 534.674L59.3402 535.145C60.3213 547.611 62.5401 558.333 66.0615 567.247L71.6419 565.042ZM65.3217 534.674C64.3888 522.821 64.9173 512.609 66.837 503.991L60.9805 502.686C58.8978 512.037 58.3743 522.873 59.3402 535.145L65.3217 534.674ZM66.8301 504.021C68.8445 495.399 72.1506 488.89 76.593 484.279L72.2721 480.116C66.8846 485.708 63.1749 493.293 60.9874 502.656L66.8301 504.021ZM76.593 484.279C80.9746 479.731 86.4244 477.191 93.106 476.666L92.6353 470.684C84.5625 471.319 77.7203 474.461 72.2721 480.116L76.593 484.279ZM93.106 476.666C99.9915 476.124 105.799 477.829 110.721 481.703L114.432 476.989C108.233 472.109 100.903 470.033 92.6353 470.684L93.106 476.666ZM110.768 481.74C115.868 485.592 120.099 491.496 123.338 499.695L128.918 497.49C125.393 488.567 120.59 481.64 114.385 476.952L110.768 481.74ZM123.35 499.723C126.686 507.92 128.848 517.86 129.772 529.602L135.754 529.131C134.795 516.947 132.534 506.371 128.907 497.461L123.35 499.723ZM129.772 529.602C130.713 541.549 130.139 551.803 128.126 560.416L133.969 561.782C136.158 552.41 136.728 541.509 135.754 529.131L129.772 529.602ZM128.121 560.437C126.199 568.94 122.942 575.452 118.491 580.169L122.855 584.287C128.219 578.602 131.878 571.028 133.974 561.761L128.121 560.437ZM118.493 580.167C114.234 584.673 108.754 587.229 101.85 587.772L102.321 593.754C110.571 593.104 117.483 589.97 122.853 584.289L118.493 580.167ZM101.403 582.09C107.633 581.599 112.71 578.831 116.412 573.862L111.6 570.278C108.951 573.834 105.469 575.751 100.932 576.108L101.403 582.09ZM116.433 573.833C119.96 568.976 122.24 562.699 123.427 555.177L117.5 554.242C116.412 561.144 114.387 566.44 111.578 570.307L116.433 573.833ZM123.427 555.177C124.609 547.685 124.818 539.301 124.09 530.049L118.108 530.52C118.808 539.412 118.594 547.312 117.5 554.242L123.427 555.177ZM124.09 530.049C123.369 520.884 121.805 512.723 119.362 505.598L113.687 507.543C115.931 514.092 117.418 521.74 118.108 530.52L124.09 530.049ZM119.378 505.645C117.03 498.402 113.795 492.558 109.552 488.313L105.309 492.555C108.687 495.935 111.516 500.85 113.671 507.496L119.378 505.645ZM109.552 488.313C105.133 483.892 99.7292 481.862 93.5533 482.348L94.024 488.33C98.4154 487.984 102.106 489.351 105.309 492.555L109.552 488.313ZM93.5533 482.348C87.3773 482.834 82.3576 485.684 78.6844 490.743L83.5393 494.268C86.2012 490.603 89.6326 488.675 94.024 488.33L93.5533 482.348ZM78.6806 490.748C75.252 495.49 72.9714 501.706 71.6854 509.209L77.5991 510.223C78.7878 503.287 80.8203 498.029 83.5431 494.263L78.6806 490.748ZM71.6789 509.249C70.4972 516.739 70.2836 525.072 71.0041 534.227L76.9856 533.756C76.2939 524.967 76.5119 517.116 77.6056 510.184L71.6789 509.249ZM71.0041 534.227C71.7399 543.576 73.2613 551.874 75.6016 559.092L81.3091 557.241C79.1457 550.569 77.6935 542.751 76.9856 533.756L71.0041 534.227ZM75.6174 559.139C78.0561 566.253 81.2768 572.013 85.3857 576.243L89.6896 572.063C86.3761 568.652 83.5419 563.754 81.2932 557.194L75.6174 559.139ZM85.4419 576.3C89.8619 580.615 95.2542 582.574 101.403 582.09L100.932 576.108C96.5139 576.456 92.8195 575.117 89.6334 572.006L85.4419 576.3Z" fill="#B9E3E1" fill-opacity="0.71"/>
<path d="M296.485 587.749C289.509 585.279 284.308 580.944 280.881 574.744C277.454 568.545 275.872 560.877 276.137 551.741C276.53 542.545 278.779 532.149 282.884 520.555C286.924 509.149 291.684 499.749 297.167 492.355C302.744 484.994 308.815 479.983 315.38 477.322C321.945 474.661 328.715 474.565 335.69 477.036C342.854 479.573 348.086 483.971 351.386 490.232C354.813 496.431 356.33 504.129 355.938 513.326C355.64 522.556 353.488 532.827 349.482 544.138C345.41 555.639 340.585 565.069 335.008 572.43C329.559 579.729 323.535 584.757 316.937 587.512C310.466 590.207 303.649 590.286 296.485 587.749ZM300.39 576.72C305.481 578.522 310.343 578.123 314.977 575.52C319.645 572.824 323.965 568.413 327.938 562.288C331.91 556.162 335.416 548.811 338.453 540.233C341.457 531.749 343.28 523.907 343.919 516.708C344.687 509.448 344.105 503.301 342.175 498.268C340.244 493.235 336.781 489.834 331.785 488.064C326.789 486.295 321.957 486.759 317.289 489.455C312.749 492.091 308.445 496.455 304.379 502.547C300.406 508.672 296.918 515.977 293.913 524.46C290.842 533.133 288.923 541.099 288.156 548.359C287.516 555.559 288.114 561.658 289.95 566.658C291.914 571.597 295.394 574.951 300.39 576.72Z" fill="#292D32"/>
<path d="M276.137 551.741L273.14 551.613L273.139 551.634L273.138 551.654L276.137 551.741ZM297.167 492.355L294.776 490.543L294.766 490.556L294.757 490.568L297.167 492.355ZM315.38 477.322L314.253 474.542L314.253 474.542L315.38 477.322ZM351.386 490.232L348.732 491.63L348.746 491.657L348.76 491.683L351.386 490.232ZM355.938 513.326L352.94 513.198L352.94 513.214L352.939 513.229L355.938 513.326ZM335.008 572.43L332.617 570.618L332.61 570.626L332.604 570.635L335.008 572.43ZM316.937 587.512L318.09 590.282L318.093 590.281L316.937 587.512ZM314.977 575.52L316.446 578.136L316.462 578.127L316.478 578.118L314.977 575.52ZM327.938 562.288L330.455 563.92L327.938 562.288ZM343.919 516.708L340.936 516.393L340.933 516.418L340.931 516.442L343.919 516.708ZM317.289 489.455L315.788 486.858L315.783 486.861L317.289 489.455ZM304.379 502.547L301.883 500.881L301.872 500.898L301.862 500.914L304.379 502.547ZM288.156 548.359L285.172 548.044L285.17 548.069L285.167 548.094L288.156 548.359ZM289.95 566.658L287.134 567.692L287.148 567.729L287.163 567.766L289.95 566.658ZM297.486 584.921C291.168 582.684 286.562 578.82 283.506 573.293L278.255 576.196C282.054 583.068 287.85 587.874 295.483 590.577L297.486 584.921ZM283.506 573.293C280.404 567.681 278.882 560.58 279.136 551.828L273.138 551.654C272.863 561.174 274.503 569.408 278.255 576.196L283.506 573.293ZM279.134 551.869C279.511 543.052 281.675 532.958 285.712 521.556L280.057 519.553C275.882 531.341 273.548 542.038 273.14 551.613L279.134 551.869ZM285.712 521.556C289.681 510.348 294.318 501.234 299.577 494.142L294.757 490.568C289.051 498.263 284.166 507.949 280.057 519.553L285.712 521.556ZM299.558 494.167C304.905 487.109 310.573 482.508 316.507 480.102L314.253 474.542C307.057 477.459 300.582 482.88 294.776 490.543L299.558 494.167ZM316.507 480.102C322.359 477.73 328.371 477.626 334.689 479.864L336.692 474.208C329.059 471.505 321.53 471.592 314.253 474.542L316.507 480.102ZM334.689 479.864C341.2 482.169 345.811 486.089 348.732 491.63L354.04 488.833C350.361 481.853 344.509 476.976 336.692 474.208L334.689 479.864ZM348.76 491.683C351.852 497.276 353.316 504.39 352.94 513.198L358.935 513.454C359.344 503.868 357.774 495.586 354.011 488.78L348.76 491.683ZM352.939 513.229C352.654 522.074 350.586 532.034 346.654 543.137L352.31 545.14C356.39 533.619 358.626 523.038 358.936 513.423L352.939 513.229ZM346.654 543.137C342.654 554.434 337.959 563.568 332.617 570.618L337.399 574.241C343.211 566.57 348.166 556.843 352.31 545.14L346.654 543.137ZM332.604 570.635C327.39 577.62 321.765 582.245 315.781 584.744L318.093 590.281C325.305 587.269 331.728 581.838 337.412 574.224L332.604 570.635ZM315.783 584.743C310.059 587.127 304.014 587.232 297.486 584.921L295.483 590.577C303.284 593.339 310.873 593.287 318.09 590.282L315.783 584.743ZM299.389 579.548C305.28 581.634 311.044 581.17 316.446 578.136L313.509 572.905C309.642 575.076 305.681 575.411 301.392 573.892L299.389 579.548ZM316.478 578.118C321.675 575.116 326.312 570.309 330.455 563.92L325.421 560.655C321.619 566.517 317.615 570.532 313.477 572.923L316.478 578.118ZM330.455 563.92C334.582 557.556 338.183 549.982 341.281 541.234L335.625 539.231C332.648 547.639 329.239 554.769 325.421 560.655L330.455 563.92ZM341.281 541.234C344.35 532.568 346.241 524.476 346.908 516.974L340.931 516.442C340.318 523.338 338.565 530.93 335.625 539.231L341.281 541.234ZM346.903 517.023C347.703 509.451 347.125 502.797 344.976 497.194L339.374 499.342C341.085 503.805 341.671 509.445 340.936 516.393L346.903 517.023ZM344.976 497.194C342.737 491.357 338.626 487.305 332.786 485.237L330.783 490.892C334.936 492.363 337.751 495.113 339.374 499.342L344.976 497.194ZM332.786 485.237C326.947 483.169 321.201 483.731 315.788 486.858L318.79 492.053C322.712 489.787 326.631 489.422 330.783 490.892L332.786 485.237ZM315.783 486.861C310.722 489.799 306.11 494.55 301.883 500.881L306.874 504.212C310.781 498.36 314.776 494.383 318.795 492.05L315.783 486.861ZM301.862 500.914C297.735 507.276 294.151 514.803 291.085 523.459L296.741 525.462C299.684 517.151 303.077 510.068 306.896 504.179L301.862 500.914ZM291.085 523.459C287.955 532.298 285.97 540.498 285.172 548.044L291.139 548.675C291.876 541.7 293.729 533.967 296.741 525.462L291.085 523.459ZM285.167 548.094C284.501 555.585 285.101 562.157 287.134 567.692L292.766 565.624C291.127 561.16 290.53 555.532 291.144 548.625L285.167 548.094ZM287.163 567.766C289.445 573.507 293.575 577.489 299.389 579.548L301.392 573.892C297.214 572.413 294.383 569.687 292.738 565.549L287.163 567.766Z" fill="#B9E3E1" fill-opacity="0.71"/>
</g>
<line x1="197.433" y1="609.489" x2="181.57" y2="3.69321" stroke="#FDFDFD" stroke-width="7" stroke-linecap="round"/>
<line x1="654.18" y1="222.858" x2="3.57609" y2="200.138" stroke="#FDFDFD" stroke-width="7" stroke-linecap="round"/>
<line x1="654.424" y1="421.138" x2="3.82038" y2="443.858" stroke="#FDFDFD" stroke-width="7" stroke-linecap="round"/>
<line x1="429.57" y1="609.306" x2="445.433" y2="3.51046" stroke="#FDFDFD" stroke-width="7" stroke-linecap="round"/>
<defs>
<filter id="filter0_d_14_437" x="-24.1099" y="198.111" width="250.474" height="292.049" filterUnits="userSpaceOnUse" color-interpolation-filters="sRGB">
<feFlood flood-opacity="0" result="BackgroundImageFix"/>
<feColorMatrix in="SourceAlpha" type="matrix" values="0 0 0 0 0 0 0 0 0 0 0 0 0 0 0 0 0 0 127 0" result="hardAlpha"/>
<feOffset dx="13" dy="18"/>
<feGaussianBlur stdDeviation="20"/>
<feComposite in2="hardAlpha" operator="out"/>
<feColorMatrix type="matrix" values="0 0 0 0 1 0 0 0 0 1 0 0 0 0 1 0 0 0 0.25 0"/>
<feBlend mode="normal" in2="BackgroundImageFix" result="effect1_dropShadow_14_437"/>
<feBlend mode="normal" in="SourceGraphic" in2="effect1_dropShadow_14_437" result="shape"/>
</filter>
<filter id="filter1_d_14_437" x="431.126" y="218.997" width="216.379" height="249.639" filterUnits="userSpaceOnUse" color-interpolation-filters="sRGB">
<feFlood flood-opacity="0" result="BackgroundImageFix"/>
<feColorMatrix in="SourceAlpha" type="matrix" values="0 0 0 0 0 0 0 0 0 0 0 0 0 0 0 0 0 0 127 0" result="hardAlpha"/>
<feOffset dx="13" dy="18"/>
<feGaussianBlur stdDeviation="20"/>
<feComposite in2="hardAlpha" operator="out"/>
<feColorMatrix type="matrix" values="0 0 0 0 1 0 0 0 0 1 0 0 0 0 1 0 0 0 0.25 0"/>
<feBlend mode="normal" in2="BackgroundImageFix" result="effect1_dropShadow_14_437"/>
<feBlend mode="normal" in="SourceGraphic" in2="effect1_dropShadow_14_437" result="shape"/>
</filter>
<filter id="filter2_d_14_437" x="221.552" y="198.957" width="212.745" height="284.385" filterUnits="userSpaceOnUse" color-interpolation-filters="sRGB">
<feFlood flood-opacity="0" result="BackgroundImageFix"/>
<feColorMatrix in="SourceAlpha" type="matrix" values="0 0 0 0 0 0 0 0 0 0 0 0 0 0 0 0 0 0 127 0" result="hardAlpha"/>
<feOffset dx="13" dy="18"/>
<feGaussianBlur stdDeviation="20"/>
<feComposite in2="hardAlpha" operator="out"/>
<feColorMatrix type="matrix" values="0 0 0 0 1 0 0 0 0 1 0 0 0 0 1 0 0 0 0.25 0"/>
<feBlend mode="normal" in2="BackgroundImageFix" result="effect1_dropShadow_14_437"/>
<feBlend mode="normal" in="SourceGraphic" in2="effect1_dropShadow_14_437" result="shape"/>
</filter>
<clipPath id="clip0_14_437">
<rect width="658" height="557" fill="white" transform="translate(0 37)"/>
</clipPath>
</defs>
</svg>
