<svg width="716" height="182" viewBox="0 0 716 182" fill="none" xmlns="http://www.w3.org/2000/svg">
<path d="M240 133V76H239.8L219.2 133H209.2L188.7 76H188.5V133H179V63H193.1L214.1 121.4H214.3L235.4 63H249.5V133H240ZM305.977 124.3V133H278.077L266.477 126.3V89.2L278.077 82.5H294.377L305.977 89.2V111.4H276.177V124.3H305.977ZM276.177 91.2V102.7H296.277V91.2H276.177ZM359.545 110V126.3L347.945 133H321.945V124.3H349.845V112H333.545L321.945 105.3V89.7L333.545 83H358.545V91.7H331.645V103.3H347.945L359.545 110ZM413.159 110V126.3L401.559 133H375.559V124.3H403.459V112H387.159L375.559 105.3V89.7L387.159 83H412.159V91.7H385.259V103.3H401.559L413.159 110ZM436.872 112.5V124.8H456.972V112.5H436.872ZM438.772 133.5L427.172 126.8V110.5L438.772 103.8H456.972V91.7H432.172V83H455.072L466.672 89.7V133.5H464.072L456.972 129.4L449.872 133.5H438.772ZM492.388 133L482.688 127.4V118.4L489.788 114.3L482.688 110.2V89.7L494.288 83H526.188V86.4L517.088 91.7L523.188 95.3V109.1L511.588 115.8H492.388V124.3H514.588L526.188 131V146.8L514.588 153.5H492.288L480.688 146.8V140.6L490.388 135V145H516.488V133H492.388ZM492.388 91.5V107.3H513.488V91.5H492.388ZM579.707 124.3V133H551.807L540.207 126.3V89.2L551.807 82.5H568.107L579.707 89.2V111.4H549.907V124.3H579.707ZM549.907 91.2V102.7H570.007V91.2H549.907ZM623.576 91.7H605.376V133H595.676V83H602.976L605.376 87.1L612.476 83H623.576V91.7ZM639.143 153L647.843 130.7L628.543 83H638.243L652.443 118.6H652.643L666.743 83H676.443L648.643 153H639.143Z" fill="#363A44"></path>
<g clip-path="url('#clip0_7_90')">
<path d="M128.226 55.1589H25.6451C18.5927 55.1589 12.8866 60.3479 12.8866 66.6899L12.8225 170.469L38.4677 147.407H128.226C135.278 147.407 141.048 142.218 141.048 135.876V66.6899C141.048 60.3479 135.278 55.1589 128.226 55.1589ZM115.403 124.345H38.4677V112.814H115.403V124.345ZM115.403 107.048H38.4677V95.5175H115.403V107.048ZM115.403 89.752H38.4677V78.221H115.403V89.752Z" fill="#363A44"></path>
</g>
<defs>
<clipPath id="clip0_7_90">
<rect width="153.871" height="138.372" fill="white" transform="translate(0 43.6279)"></rect>
</clipPath>
</defs>
</svg>
