<svg width="34" height="35" viewBox="0 0 34 35" fill="none" xmlns="http://www.w3.org/2000/svg">
<path d="M25.3333 17.5L26.2172 18.4501C26.7053 17.9253 26.7053 17.0747 26.2172 16.5499L25.3333 17.5ZM8.66667 16.1562C7.97632 16.1562 7.41667 16.7579 7.41667 17.5C7.41667 18.2421 7.97632 18.8438 8.66667 18.8438V16.1562ZM17.7828 23.7165C17.2947 24.2413 17.2947 25.092 17.7828 25.6168C18.271 26.1416 19.0623 26.1416 19.5505 25.6168L17.7828 23.7165ZM19.5505 9.38316C19.0623 8.8584 18.271 8.8584 17.7828 9.38316C17.2947 9.90792 17.2947 10.7587 17.7828 11.2835L19.5505 9.38316ZM25.3333 16.1562H8.66667V18.8438H25.3333V16.1562ZM19.5505 25.6168L26.2172 18.4501L24.4495 16.5499L17.7828 23.7165L19.5505 25.6168ZM26.2172 16.5499L19.5505 9.38316L17.7828 11.2835L24.4495 18.4501L26.2172 16.5499ZM30.75 17.5C30.75 25.6634 24.5938 32.2812 17 32.2812V34.9688C25.9747 34.9688 33.25 27.1478 33.25 17.5H30.75ZM17 32.2812C9.40608 32.2812 3.25 25.6634 3.25 17.5H0.75C0.75 27.1478 8.02537 34.9688 17 34.9688V32.2812ZM3.25 17.5C3.25 9.33654 9.40608 2.71875 17 2.71875V0.03125C8.02537 0.03125 0.75 7.85227 0.75 17.5H3.25ZM17 2.71875C24.5938 2.71875 30.75 9.33654 30.75 17.5H33.25C33.25 7.85227 25.9747 0.03125 17 0.03125V2.71875Z" fill="white"></path>
</svg>
