<svg width="57" height="41" viewBox="0 0 57 41" fill="none" xmlns="http://www.w3.org/2000/svg">
<path fill-rule="evenodd" clip-rule="evenodd" d="M16.8915 6.09963C16.6315 6.00039 16.3415 5.97446 16.0633 6.02556C15.785 6.07667 15.5329 6.20218 15.343 6.38403C15.1532 6.56589 15.0355 6.79472 15.0068 7.03761C14.9782 7.2805 15.0401 7.52493 15.1836 7.73574L24.2017 21L15.1836 34.2643C15.0401 34.4751 14.9782 34.7195 15.0068 34.9624C15.0355 35.2053 15.1532 35.4341 15.343 35.616C15.5329 35.7978 15.785 35.9233 16.0633 35.9744C16.3415 36.0255 16.6315 35.9996 16.8915 35.9004L53.2008 22.0546C53.4387 21.964 53.6408 21.8161 53.7826 21.629C53.9245 21.4418 54 21.2233 54 21C54 20.7767 53.9245 20.5582 53.7826 20.371C53.6408 20.1839 53.4387 20.036 53.2008 19.9454L16.8915 6.09963ZM26.6896 20.0769L19.6052 9.66031L49.3466 21L19.6052 32.3397L26.6896 21.9231H37.8621C38.1475 21.9231 38.4211 21.8258 38.6229 21.6527C38.8246 21.4796 38.938 21.2448 38.938 21C38.938 20.7552 38.8246 20.5204 38.6229 20.3473C38.4211 20.1742 38.1475 20.0769 37.8621 20.0769H26.6896Z" fill="#5B6976"></path>
</svg>
