<svg width="39" height="24" viewBox="0 0 39 24" fill="none" xmlns="http://www.w3.org/2000/svg">
<path d="M25.5125 24C26.0198 24 26.5062 23.8736 26.8649 23.6485C27.2235 23.4235 27.425 23.1183 27.425 22.8C27.425 22.4817 27.2235 22.1765 26.8649 21.9515C26.5062 21.7264 26.0198 21.6 25.5125 21.6H9.57502C8.22242 21.6 6.92521 21.2629 5.96878 20.6627C5.01234 20.0626 4.47502 19.2487 4.47502 18.4V5.6C4.47502 4.75131 5.01234 3.93737 5.96878 3.33726C6.92521 2.73714 8.22242 2.4 9.57502 2.4H25.5125C26.0198 2.4 26.5062 2.27357 26.8649 2.04853C27.2235 1.82348 27.425 1.51826 27.425 1.2C27.425 0.88174 27.2235 0.576515 26.8649 0.351472C26.5062 0.126428 26.0198 0 25.5125 0H9.57502C7.20797 0 4.93786 0.589998 3.2641 1.6402C1.59033 2.69041 0.650024 4.11479 0.650024 5.6V18.4C0.650024 19.8852 1.59033 21.3096 3.2641 22.3598C4.93786 23.41 7.20797 24 9.57502 24H25.5125ZM28.0396 5.9184C28.2241 5.81143 28.4403 5.72831 28.676 5.67379C28.9117 5.61927 29.1623 5.59443 29.4133 5.60067C29.6643 5.60691 29.9109 5.64411 30.1389 5.71016C30.367 5.77621 30.5721 5.8698 30.7426 5.9856L38.3926 11.1856C38.7191 11.4073 38.9004 11.6981 38.9004 12C38.9004 12.3019 38.7191 12.5927 38.3926 12.8144L30.7426 18.0144C30.398 18.248 29.9196 18.3862 29.4127 18.3985C28.9058 18.4108 28.4119 18.2962 28.0396 18.08C27.6673 17.8638 27.4471 17.5636 27.4275 17.2456C27.4079 16.9275 27.5904 16.6176 27.935 16.384L32.6219 13.1984H12.7625C12.2553 13.1984 11.7688 13.072 11.4102 12.8469C11.0515 12.6219 10.85 12.3167 10.85 11.9984C10.85 11.6801 11.0515 11.3749 11.4102 11.1499C11.7688 10.9248 12.2553 10.7984 12.7625 10.7984H32.6194L27.9325 7.6128C27.762 7.49704 27.6295 7.36134 27.5426 7.21345C27.4557 7.06556 27.4161 6.90837 27.4261 6.75088C27.436 6.59338 27.4953 6.43866 27.6006 6.29555C27.7059 6.15243 27.855 6.02533 28.0396 5.9184Z" fill="black"/>
</svg>
