<svg width="57" height="46" viewBox="0 0 57 46" fill="none" xmlns="http://www.w3.org/2000/svg">
<path d="M9.72563 38.4388L17.2567 36.4119L18.5749 36.9438C21.603 38.1628 24.9696 38.8125 28.5 38.8125C40.2919 38.8125 49.875 31.3202 49.875 23C49.875 14.6797 40.2919 7.1875 28.5 7.1875C16.7081 7.1875 7.125 14.6797 7.125 23C7.125 26.105 8.51438 29.256 11.0687 31.9499L12.2977 33.2436L9.72206 38.4359L9.72563 38.4388ZM7.20694 42.1475C6.88456 42.2347 6.53799 42.2456 6.20819 42.1789C5.87839 42.1122 5.57912 41.9707 5.34573 41.7712C5.11235 41.5717 4.9546 41.3224 4.89113 41.0529C4.82765 40.7833 4.86109 40.5047 4.9875 40.25L8.2365 33.695C5.2725 30.5613 3.5625 26.8123 3.5625 23C3.5625 13.4722 14.25 4.3125 28.5 4.3125C42.75 4.3125 53.4375 13.4722 53.4375 23C53.4375 32.5278 42.75 41.6875 28.5 41.6875C24.5035 41.6966 20.5596 40.9523 16.9824 39.514L7.20694 42.1446V42.1475Z" fill="black"/>
<path d="M19.5938 25.875H37.4062C38.5938 25.875 39.1875 26.3542 39.1875 27.3125C39.1875 28.2708 38.5938 28.75 37.4062 28.75H19.5938C18.4062 28.75 17.8125 28.2708 17.8125 27.3125C17.8125 26.3542 18.4062 25.875 19.5938 25.875ZM21.375 17.25H35.625C36.8125 17.25 37.4062 17.7292 37.4062 18.6875C37.4062 19.6458 36.8125 20.125 35.625 20.125H21.375C20.1875 20.125 19.5938 19.6458 19.5938 18.6875C19.5938 17.7292 20.1875 17.25 21.375 17.25Z" fill="black"/>
</svg>
