<svg width="70" height="68" viewBox="0 0 70 68" fill="none" xmlns="http://www.w3.org/2000/svg">
<path d="M35 15C32.5895 15 30.2332 15.6965 28.229 17.0013C26.2248 18.3061 24.6627 20.1608 23.7402 22.3306C22.8178 24.5005 22.5764 26.8882 23.0467 29.1917C23.5169 31.4952 24.6777 33.6111 26.3821 35.2719C28.0866 36.9326 30.2582 38.0636 32.6223 38.5218C34.9865 38.98 37.437 38.7449 39.664 37.8461C41.8909 36.9473 43.7944 35.4252 45.1335 33.4724C46.4727 31.5196 47.1875 29.2237 47.1875 26.875C47.1875 23.7256 45.9035 20.7051 43.6179 18.4781C41.3323 16.2511 38.2323 15 35 15Z" fill="#363A44"/>
<path d="M35 0.75C28.2507 0.75 21.653 2.70008 16.0412 6.35364C10.4294 10.0072 6.05547 15.2001 3.47263 21.2758C0.889786 27.3514 0.213997 34.0369 1.53072 40.4868C2.84744 46.9366 6.09753 52.8612 10.87 57.5113C15.6425 62.1614 21.723 65.3282 28.3426 66.6111C34.9622 67.8941 41.8236 67.2356 48.0591 64.719C54.2946 62.2024 59.6242 57.9406 63.3739 52.4727C67.1236 47.0048 69.125 40.5762 69.125 34C69.1147 25.1846 65.5161 16.7332 59.1186 10.4998C52.7212 4.2664 44.0474 0.760057 35 0.75ZM54.4805 55.1993C54.4319 52.084 53.1293 49.1121 50.8533 46.9238C48.5773 44.7354 45.5101 43.5059 42.3125 43.5H27.6875C24.49 43.5059 21.4227 44.7354 19.1467 46.9238C16.8707 49.1121 15.5681 52.084 15.5195 55.1993C11.0993 51.3535 7.98211 46.2903 6.5808 40.6801C5.17949 35.0698 5.56013 29.1772 7.67232 23.7824C9.78451 18.3876 13.5286 13.7452 18.4089 10.4698C23.2891 7.19448 29.0753 5.44069 35.0012 5.44069C40.9272 5.44069 46.7134 7.19448 51.5936 10.4698C56.4739 13.7452 60.218 18.3876 62.3301 23.7824C64.4423 29.1772 64.823 35.0698 63.4217 40.6801C62.0204 46.2903 58.9008 51.3535 54.4805 55.1993Z" fill="#363A44"/>
</svg>
