<svg width="18" height="19" viewBox="0 0 18 19" fill="none" xmlns="http://www.w3.org/2000/svg">
<path fill-rule="evenodd" clip-rule="evenodd" d="M16.6983 0.696405C17.2955 1.1374 17.4629 2.0404 17.0723 2.71474L8.289 17.8814C8.18666 18.0581 8.05156 18.2076 7.89303 18.3196C7.73449 18.4316 7.55631 18.5034 7.3708 18.53C7.18529 18.5566 6.99687 18.5375 6.81856 18.4738C6.64025 18.4102 6.47631 18.3036 6.33807 18.1614L0.654736 12.3281C0.401233 12.0678 0.249672 11.7046 0.233394 11.3182C0.217116 10.9318 0.337454 10.554 0.567936 10.2677C0.798418 9.98152 1.12016 9.81041 1.46239 9.79203C1.80462 9.77365 2.1393 9.90952 2.3928 10.1697L6.956 14.8527L14.9106 1.11874C15.0981 0.795138 15.3917 0.56886 15.727 0.489661C16.0622 0.410462 16.4116 0.484828 16.6983 0.696405Z" fill="black"/>
</svg>
