<svg width="44" height="28" viewBox="0 0 44 28" fill="none" xmlns="http://www.w3.org/2000/svg">
<g clip-path="url(#clip0_12_167)">
<path fill-rule="evenodd" clip-rule="evenodd" d="M22 6C22 5.294 22.1584 4 22.4048 4H0V8H22.4048C22.1584 8 22 6.706 22 6ZM39.1952 4C38.2866 2 35.8688 0 33 0C29.3546 0 26.4 2.686 26.4 6C26.4 9.314 29.3546 12 33 12C35.8688 12 38.2866 10 39.1952 8H44V4H39.1952ZM22 22C22 22.706 21.8416 23.372 21.5952 24H44V20H21.5952C21.8416 20 22 21.294 22 22ZM17.6 22C17.6 25.314 14.6454 28 11 28C8.1312 28 5.7134 26 4.8048 24H0V20H4.8048C5.7134 18 8.1312 16 11 16C14.6454 16 17.6 18.686 17.6 22Z" fill="#263238"/>
</g>
<defs>
<clipPath id="clip0_12_167">
<rect width="44" height="28" fill="white"/>
</clipPath>
</defs>
</svg>
