<svg width="29" height="29" viewBox="0 0 29 29" fill="none" xmlns="http://www.w3.org/2000/svg">
<path fill-rule="evenodd" clip-rule="evenodd" d="M12.6334 0.93335C12.377 0.93335 12.1311 1.03519 11.9498 1.21648C11.7686 1.39776 11.6667 1.64364 11.6667 1.90002C11.6667 2.15639 11.7686 2.40227 11.9498 2.58355C12.1311 2.76484 12.377 2.86668 12.6334 2.86668H20.3667C20.6231 2.86668 20.869 2.76484 21.0503 2.58355C21.2315 2.40227 21.3334 2.15639 21.3334 1.90002C21.3334 1.64364 21.2315 1.39776 21.0503 1.21648C20.869 1.03519 20.6231 0.93335 20.3667 0.93335H12.6334ZM7.80005 5.76668C7.80005 5.51031 7.90189 5.26443 8.08318 5.08315C8.26446 4.90186 8.51034 4.80002 8.76672 4.80002H24.2334C24.4898 4.80002 24.7356 4.90186 24.9169 5.08315C25.0982 5.26443 25.2 5.51031 25.2 5.76668C25.2 6.02306 25.0982 6.26893 24.9169 6.45022C24.7356 6.6315 24.4898 6.73335 24.2334 6.73335H23.2667V22.2C23.2667 22.7128 23.063 23.2045 22.7005 23.5671C22.3379 23.9297 21.8461 24.1334 21.3334 24.1334H11.6667C11.154 24.1334 10.6622 23.9297 10.2996 23.5671C9.93707 23.2045 9.73338 22.7128 9.73338 22.2V6.73335H8.76672C8.51034 6.73335 8.26446 6.6315 8.08318 6.45022C7.90189 6.26893 7.80005 6.02306 7.80005 5.76668ZM11.6667 6.73335H21.3334V22.2H11.6667V6.73335Z" fill="black"/>
</svg>
