<svg width="35" height="41" viewBox="0 0 35 41" fill="none" xmlns="http://www.w3.org/2000/svg">
<path d="M14.407 31.3726C13.7975 32.0865 13.074 32.6529 12.2778 33.0392C11.4815 33.4256 10.6281 33.6244 9.7662 33.6244C8.90433 33.6244 8.0509 33.4256 7.25463 33.0392C6.45836 32.6529 5.73486 32.0865 5.12542 31.3726C4.51598 30.6587 4.03255 29.8112 3.70273 28.8784C3.3729 27.9456 3.20314 26.9459 3.20314 25.9363C3.20314 24.9267 3.3729 23.9269 3.70273 22.9942C4.03255 22.0614 4.51598 21.2139 5.12542 20.4999L15.9535 7.81557C17.5945 5.89328 19.8202 4.81334 22.1409 4.81334C24.4616 4.81334 26.6872 5.89328 28.3282 7.81557C29.9692 9.73787 30.8911 12.3451 30.8911 15.0636C30.8911 17.7821 29.9692 20.3893 28.3282 22.3116L14.407 38.6194L12.8604 36.8077L26.7817 20.4999C28.0125 19.0581 28.7039 17.1026 28.7039 15.0636C28.7039 13.0246 28.0125 11.0691 26.7817 9.62726C25.5509 8.18545 23.8815 7.37545 22.1409 7.37545C20.4003 7.37545 18.7309 8.18545 17.5001 9.62726L6.67198 22.3116C6.26564 22.7876 5.94332 23.3527 5.72341 23.9746C5.5035 24.5966 5.39031 25.2631 5.39031 25.9363C5.39031 26.6095 5.5035 27.276 5.72341 27.8979C5.94332 28.5199 6.26564 29.085 6.67198 29.5609C7.07832 30.0369 7.56071 30.4145 8.09162 30.6721C8.62253 30.9297 9.19155 31.0623 9.7662 31.0623C10.3409 31.0623 10.9099 30.9297 11.4408 30.6721C11.9717 30.4145 12.4541 30.0369 12.8604 29.5609L22.9142 17.7811C23.0186 17.6629 23.102 17.5216 23.1593 17.3652C23.2166 17.2089 23.2468 17.0408 23.248 16.8707C23.2493 16.7006 23.2216 16.5318 23.1666 16.3744C23.1116 16.2169 23.0304 16.0739 22.9277 15.9536C22.825 15.8333 22.7029 15.7381 22.5685 15.6737C22.4341 15.6093 22.2901 15.5769 22.1448 15.5783C21.9996 15.5798 21.8561 15.6152 21.7226 15.6823C21.5892 15.7495 21.4685 15.8471 21.3676 15.9694L11.3139 27.7467L9.76511 25.935L19.821 14.1578C20.1237 13.7906 20.4858 13.4978 20.8861 13.2964C21.2864 13.0949 21.717 12.9889 22.1527 12.9845C22.5884 12.98 23.0205 13.0773 23.4237 13.2705C23.827 13.4638 24.1933 13.7492 24.5014 14.1101C24.8095 14.471 25.0531 14.9002 25.2181 15.3726C25.3831 15.8449 25.4661 16.3511 25.4623 16.8615C25.4585 17.3718 25.368 17.8762 25.1961 18.3452C25.0241 18.8141 24.7741 19.2382 24.4607 19.5928L14.407 31.3726Z" fill="#5B6976"></path>
</svg>
