<svg width="52" height="56" viewBox="0 0 52 56" fill="none" xmlns="http://www.w3.org/2000/svg">
<path d="M19.8478 25.3634C19.6311 25.3401 19.3711 25.3401 19.1328 25.3634C13.9761 25.1767 9.8811 20.6267 9.8811 15.0267C9.8811 9.31008 14.1711 4.66675 19.5011 4.66675C24.8093 4.66675 29.121 9.31008 29.121 15.0267C29.0993 20.6267 25.0043 25.1767 19.8478 25.3634Z" stroke="#363A44" stroke-width="5" stroke-linecap="round" stroke-linejoin="round"></path>
<path opacity="0.4" d="M35.5534 9.33325C39.7567 9.33325 43.1367 12.9966 43.1367 17.4999C43.1367 21.9099 39.8867 25.5033 35.8351 25.6666C35.6617 25.6433 35.4667 25.6433 35.2717 25.6666" stroke="#363A44" stroke-width="5" stroke-linecap="round" stroke-linejoin="round"></path>
<path d="M9.01478 33.9733C3.77144 37.7533 3.77144 43.9133 9.01478 47.6699C14.9731 51.9633 24.7448 51.9633 30.7031 47.6699C35.9464 43.8899 35.9464 37.7299 30.7031 33.9733C24.7664 29.7033 14.9948 29.7033 9.01478 33.9733Z" stroke="#363A44" stroke-width="5" stroke-linecap="round" stroke-linejoin="round"></path>
<path opacity="0.4" d="M39.7363 46.6667C41.2963 46.3167 42.7697 45.6401 43.983 44.6367C47.363 41.9067 47.363 37.4034 43.983 34.6734C42.7913 33.6934 41.3397 33.0401 39.8013 32.6667" stroke="#363A44" stroke-width="5" stroke-linecap="round" stroke-linejoin="round"></path>
</svg>
