<svg width="484" height="468" viewBox="0 0 484 468" fill="#fff" xmlns="http://www.w3.org/2000/svg">
<path d="M59.4429 111.678C92.2723 111.678 118.886 91.2205 118.886 65.9846C118.886 40.7487 92.2723 20.291 59.4429 20.291C26.6135 20.291 0 40.7487 0 65.9846C0 91.2205 26.6135 111.678 59.4429 111.678Z" fill="#F5F5F5"/>
<path d="M46.9793 53.8238C44.8221 51.6129 40.5077 51.6129 37.8712 53.0868C34.9949 54.7451 33.7964 56.5876 33.317 59.5355C32.5979 56.7718 31.1598 54.7451 28.0438 53.2711C25.1676 51.7971 20.8532 51.9814 18.9357 54.1923C17.7372 55.4821 17.4975 57.3246 17.7372 58.9828C17.9769 60.641 18.696 62.4835 20.1341 63.589C25.1676 68.011 27.5645 68.748 33.7964 71.8802C39.7887 68.5637 41.7062 67.8267 46.2603 63.2205C47.4587 61.9308 48.1777 60.0883 48.4174 58.4301C48.6571 56.9561 48.1778 55.1136 46.9793 53.8238Z" fill="white"/>
<path d="M99.471 52.9027C97.3138 50.6917 92.9993 50.6917 90.3627 52.1657C87.4864 53.8239 86.2881 55.6664 85.8087 58.6144C85.0896 55.8507 83.6515 53.8239 80.5355 52.35C77.6592 50.876 73.3449 51.0602 71.4274 53.2712C70.2289 54.5609 69.9892 56.4034 70.2289 58.0617C70.4686 59.7199 71.1877 61.5624 72.6258 62.6679C77.6593 67.0898 80.0562 67.8268 86.2881 70.959C92.2803 67.6426 94.1977 66.9056 98.7518 62.2994C99.9503 61.0096 100.669 59.1671 100.909 57.5089C101.149 56.0349 100.909 54.1924 99.471 52.9027Z" fill="white"/>
<path d="M79.5765 76.4866C78.8575 84.0408 69.7493 90.4894 60.1618 90.4894C50.3345 90.4894 41.2263 84.225 40.5072 76.6708L79.5765 76.4866Z" fill="white"/>
<path d="M305.364 2.05041C302.488 -0.713318 296.975 -0.529078 293.619 1.6819C290.264 3.89288 288.586 6.47237 288.346 10.1573C287.387 6.47237 284.99 4.26138 281.155 2.4189C277.32 0.576415 271.807 0.944915 269.411 4.07714C267.972 5.91962 267.733 8.13061 268.212 10.3416C268.692 12.5526 269.65 14.7635 271.568 16.2375C278.279 21.5807 281.635 22.502 289.784 26.1869C297.215 21.765 299.611 20.4752 305.364 14.5793C307.042 12.9211 307.521 10.5258 307.761 8.4991C307.761 6.10387 307.042 3.70864 305.364 2.05041Z" fill="#F5F5F5"/>
<path d="M238.012 188.51C177.371 188.51 123.68 211.541 91.0826 246.732L26.8457 253.734L62.7991 293.163C59.2038 304.218 57.2863 315.641 57.2863 327.618C57.2863 404.449 138.301 466.541 238.012 466.541C337.962 466.541 418.737 404.265 418.737 327.618C418.737 250.97 337.723 188.51 238.012 188.51Z" fill="#F5F5F5"/>
<path d="M204.695 130.656C231.301 103.756 259.104 107.625 278.519 114.073C297.934 120.522 310.877 136.92 309.679 153.134C309.439 157.372 308.241 161.978 310.398 165.847C313.993 172.112 324.54 173.954 330.772 178.929C339.161 185.746 337.243 196.801 334.367 205.829C331.491 215.042 328.614 225.544 335.565 233.282C342.037 240.284 354.261 242.31 364.328 245.995C377.751 250.97 388.537 260.367 392.372 271.237C396.207 282.292 392.851 294.821 382.784 303.297C372.957 311.588 358.096 315.273 343.715 316.747C301.769 321.537 257.427 311.035 226.027 289.294C194.628 267.368 177.131 234.388 179.048 201.96" fill="#363A44"/>
<path d="M367.923 306.244C367.923 306.244 368.882 305.507 370.32 304.218C371.758 302.744 373.916 300.533 375.114 297.216C376.312 293.9 376.552 289.662 375.354 284.872C374.155 280.081 371.039 274.922 365.526 270.5C362.89 268.289 359.534 266.262 355.939 264.42C352.344 262.577 348.029 261.288 343.715 259.814C339.4 258.34 334.846 257.05 330.292 255.023C325.978 252.997 321.903 250.049 318.787 246.732C312.315 240.099 308.72 231.255 308.48 222.227C308.241 217.805 308.96 213.199 309.919 208.593C311.117 203.987 312.555 199.565 313.754 194.958C314.473 191.642 315.192 188.325 315.192 185.193C315.192 182.061 313.993 178.929 312.315 175.981C310.877 173.033 308.96 170.085 307.522 167.137C306.084 164.005 305.604 160.872 305.125 157.924C304.645 154.792 304.645 151.844 304.166 148.896C303.687 145.948 302.968 143.185 302.009 140.421C300.091 135.078 296.975 129.919 293.14 125.865C286.429 117.758 275.643 113.336 265.816 112.231C255.749 111.125 247.12 113.336 240.888 116.284C234.656 119.232 230.821 122.549 228.664 124.944C226.507 127.339 225.548 128.813 225.548 128.813C225.548 128.813 226.267 127.339 228.424 124.76C230.581 122.18 234.177 118.68 240.648 115.732C246.88 112.784 255.749 110.204 266.055 111.31C276.122 112.415 287.627 116.837 294.578 125.128C298.893 129.366 301.769 134.525 303.926 140.052C304.885 142.816 305.844 145.764 306.083 148.712C306.563 151.66 306.563 154.792 307.042 157.74C307.522 160.688 308.241 163.82 309.439 166.584C310.877 169.532 312.555 172.296 314.233 175.428C315.911 178.376 317.109 181.692 317.109 185.193C317.109 188.694 316.39 191.826 315.671 195.143C314.473 199.749 313.034 204.355 311.836 208.777C310.638 213.199 310.158 217.805 310.398 222.227C310.638 231.071 313.993 239.546 320.225 245.995C323.341 249.312 327.176 251.891 331.251 253.918C335.565 255.945 339.88 257.419 344.434 258.708C348.748 260.182 353.063 261.472 356.898 263.314C360.733 265.157 363.849 267.368 366.725 269.579C372.238 274.185 375.354 279.528 376.552 284.503C377.751 289.293 377.511 293.715 376.073 297.216C374.635 300.533 372.477 302.744 371.039 304.218C368.882 305.692 367.923 306.244 367.923 306.244Z" fill="#1E2126"/>
<path d="M276.884 269.944C273.292 272.351 270.591 274.489 270.852 274.719C271.113 274.949 274.237 273.184 277.829 270.777C281.421 268.37 284.122 266.232 283.861 266.002C283.6 265.772 280.476 267.537 276.884 269.944Z" fill="#FAFAFA"/>
<path d="M262.221 258.893L182.404 266.447C182.404 266.447 118.167 275.475 105.224 312.509C96.3557 338.119 77.8996 385.656 67.3533 412.74C62.7992 424.348 69.7502 436.877 83.6522 442.588C100.67 449.406 121.523 443.694 128.953 430.244L163.948 368.336C163.948 368.336 176.172 389.893 175.453 400.211C174.734 410.345 146.93 447.932 146.93 447.932C205.894 473.911 265.816 470.594 312.555 454.38L310.398 356.729C310.398 356.729 332.449 443.878 376.792 437.245C414.183 431.718 389.495 375.89 376.792 354.518C360.493 327.249 339.401 288.372 325.978 278.976C290.264 253.549 262.221 258.893 262.221 258.893Z" fill="white"/>
<path fill-rule="evenodd" clip-rule="evenodd" d="M280.786 258.906C292.332 260.76 308.344 265.808 326.266 278.567C329.688 280.963 333.56 285.206 337.686 290.605C341.819 296.015 346.232 302.622 350.73 309.779C356.62 319.151 362.668 329.488 368.428 339.333C371.46 344.517 374.413 349.564 377.221 354.261L377.222 354.262C383.587 364.972 392.969 384.332 396.07 401.736C397.62 410.433 397.614 418.714 394.812 425.191C391.991 431.712 386.365 436.335 376.866 437.74C365.593 439.426 355.759 435.142 347.382 427.84C339.013 420.544 332.065 410.212 326.524 399.707C320.98 389.198 316.829 378.485 314.063 370.404C312.703 366.428 311.678 363.087 310.986 360.717L313.063 454.733L312.719 454.853C265.879 471.101 205.825 474.426 146.729 448.389L146.156 448.137L146.528 447.634L146.93 447.932C146.528 447.634 146.528 447.634 146.528 447.634L146.529 447.633L146.533 447.628L146.548 447.607L146.607 447.527C146.66 447.456 146.738 447.35 146.839 447.211C147.043 446.934 147.341 446.526 147.722 446.003C148.483 444.956 149.57 443.45 150.878 441.611C153.494 437.931 156.988 432.921 160.505 427.596C164.022 422.269 167.556 416.634 170.254 411.703C171.604 409.237 172.74 406.954 173.559 404.979C174.383 402.994 174.87 401.36 174.954 400.176C175.128 397.689 174.52 394.477 173.48 391.022C172.443 387.577 170.992 383.936 169.513 380.607C168.035 377.28 166.535 374.272 165.403 372.096C164.838 371.009 164.364 370.129 164.033 369.522C164.002 369.466 163.972 369.411 163.944 369.36L129.391 430.485C129.391 430.486 129.39 430.487 129.39 430.488C125.593 437.359 118.393 442.216 110.03 444.499C101.662 446.783 92.0824 446.504 83.4662 443.052L83.4621 443.051C69.3971 437.272 62.2025 424.501 66.8876 412.558C77.4354 385.47 95.8871 337.945 104.752 312.345L104.752 312.344C111.302 293.604 130.788 282.019 148.486 275.124C157.354 271.67 165.813 269.378 172.053 267.949C175.174 267.234 177.742 266.735 179.53 266.415C180.425 266.255 181.124 266.139 181.601 266.063C181.84 266.026 182.022 265.998 182.146 265.979C182.207 265.97 182.254 265.963 182.286 265.959L182.322 265.954L182.334 265.952C182.334 265.952 182.335 265.952 182.404 266.447L182.335 265.952L182.346 265.95L262.151 258.397C262.167 258.394 262.189 258.39 262.217 258.385C262.274 258.376 262.358 258.362 262.468 258.345C262.688 258.311 263.013 258.265 263.438 258.216C264.287 258.118 265.536 258.008 267.144 257.955C270.36 257.851 275.014 257.979 280.786 258.906ZM182.463 266.944L182.429 266.948C182.399 266.953 182.354 266.959 182.293 266.968C182.173 266.986 181.993 267.014 181.758 267.051C181.287 267.126 180.594 267.24 179.707 267.399C177.932 267.717 175.38 268.213 172.276 268.924C166.068 270.345 157.659 272.624 148.849 276.056C131.194 282.934 112.09 294.379 105.696 312.673C96.824 338.295 78.364 385.841 67.8193 412.921L67.8188 412.923C63.3964 424.195 70.1033 436.481 83.841 442.125C92.242 445.49 101.597 445.764 109.766 443.534C117.941 441.303 124.882 436.58 128.516 430.002L128.518 429.998L163.947 367.321L164.383 368.09L163.948 368.336C164.383 368.09 164.383 368.089 164.383 368.09L164.384 368.091L164.392 368.106L164.419 368.153C164.442 368.195 164.477 368.257 164.522 368.338C164.612 368.499 164.744 368.737 164.911 369.043C165.245 369.655 165.721 370.541 166.29 371.635C167.428 373.823 168.939 376.85 170.427 380.202C171.915 383.552 173.384 387.234 174.438 390.734C175.487 394.222 176.138 397.574 175.952 400.246C175.856 401.596 175.317 403.353 174.483 405.363C173.644 407.383 172.49 409.7 171.132 412.183C168.414 417.149 164.863 422.811 161.339 428.147C157.815 433.485 154.313 438.505 151.693 442.19C150.383 444.033 149.293 445.542 148.531 446.591C148.184 447.068 147.904 447.45 147.703 447.725C206.205 473.31 265.61 470.051 312.047 454.027L309.801 352.33L310.883 356.606L310.398 356.729C310.883 356.606 310.883 356.605 310.883 356.606L310.884 356.609L310.887 356.621L310.899 356.667C310.909 356.708 310.925 356.77 310.946 356.852C310.977 356.968 311.018 357.125 311.071 357.32C311.092 357.399 311.115 357.484 311.139 357.575C311.311 358.209 311.568 359.139 311.912 360.321C312.6 362.684 313.632 366.055 315.01 370.08C317.765 378.132 321.897 388.792 327.409 399.241C332.923 409.695 339.803 419.906 348.039 427.086C356.269 434.259 365.819 438.381 376.718 436.751C385.914 435.391 391.225 430.963 393.894 424.794C396.582 418.582 396.622 410.533 395.085 401.911C392.014 384.676 382.7 365.436 376.362 354.773C373.544 350.059 370.586 345.003 367.551 339.815C361.797 329.98 355.765 319.67 349.883 310.311C345.392 303.165 340.997 296.587 336.891 291.212C332.778 285.828 328.981 281.688 325.691 279.385L325.688 279.383C307.898 266.717 292.031 261.724 280.627 259.893C274.924 258.977 270.335 258.852 267.177 258.955C265.598 259.006 264.376 259.115 263.553 259.209C263.141 259.257 262.828 259.301 262.62 259.333C262.516 259.349 262.438 259.362 262.387 259.371C262.361 259.375 262.342 259.379 262.33 259.381L262.317 259.383L262.314 259.384L262.291 259.388L182.463 266.944Z" fill="#363A44"/>
<path d="M188.396 271.237C183.602 276.949 176.891 281.739 170.18 286.345C165.626 289.478 160.832 292.426 155.319 294.084C149.806 295.742 142.855 295.742 138.061 293.163C133.268 290.399 131.35 284.503 134.945 281.002C137.582 278.607 141.657 277.686 145.492 276.949C158.435 274.554 171.378 271.974 184.321 269.579" fill="#F5F5F5"/>
<path d="M86.5283 385.103C86.2886 384.918 90.603 381.97 97.5539 380.681C104.265 379.391 110.018 380.312 110.018 380.496C110.018 380.865 104.505 380.312 98.0333 381.602C91.322 382.892 86.768 385.471 86.5283 385.103Z" fill="#263238"/>
<path d="M97.0749 376.627C96.8352 376.443 100.67 374.969 105.464 375.337C110.498 375.706 113.613 377.733 113.613 377.917C113.374 378.101 110.018 376.627 105.464 376.443C100.91 375.89 97.0749 376.996 97.0749 376.627Z" fill="#263238"/>
<path d="M112.894 381.233C105.943 378.654 97.0746 379.022 90.8427 382.339C89.4046 383.076 87.7268 383.813 86.5283 383.26C85.0902 382.707 85.3298 381.049 86.0489 380.128C87.7267 377.548 91.8015 376.627 95.6365 376.443C102.348 375.89 109.059 376.811 115.291 378.838" fill="#F5F5F5"/>
<path d="M242.805 339.962C238.491 346.41 226.507 350.464 220.754 357.649C215.96 363.73 214.282 370.731 211.406 377.364C203.496 395.789 186.479 411.819 164.427 421.399C168.742 414.951 172.337 408.318 174.974 401.316C176.172 394.868 172.577 388.972 172.577 388.972C175.213 382.523 187.437 373.495 192.95 368.152C199.422 361.703 206.133 355.254 214.282 350.095C222.432 344.752 232.259 340.699 242.805 339.962Z" fill="#F5F5F5"/>
<path d="M283.257 398.492C279.356 403.693 276.472 408.033 276.816 408.186C277.16 408.338 280.602 404.245 284.503 399.044C288.404 393.843 291.288 389.504 290.944 389.351C290.6 389.199 287.158 393.291 283.257 398.492Z" fill="#363A44"/>
<path d="M341.558 382.339C341.797 382.339 341.558 384.366 341.318 387.682C341.078 390.999 340.599 395.421 340.838 400.211C341.318 410.161 346.351 417.346 345.872 417.53C345.872 417.53 345.393 417.162 344.913 416.241C344.434 415.504 343.715 414.214 342.996 412.74C341.558 409.608 340.119 405.186 339.64 400.211C339.4 395.236 339.88 390.63 340.359 387.498C341.078 384.181 341.558 382.155 341.558 382.339Z" fill="#263238"/>
<path d="M233.218 423.795C233.458 423.611 237.532 426.743 241.607 430.981C245.682 435.403 248.318 439.272 248.079 439.456C247.839 439.64 244.723 435.955 240.648 431.533C236.574 427.296 232.978 423.979 233.218 423.795Z" fill="#363A44"/>
<path d="M282.814 433.764C278.073 431.951 274.087 430.703 273.91 430.976C273.733 431.249 277.433 432.94 282.173 434.753C286.914 436.566 290.9 437.814 291.077 437.541C291.254 437.268 287.554 435.576 282.814 433.764Z" fill="#363A44"/>
<path d="M247.12 401.316C246.88 401.501 243.525 399.474 239.929 396.526C236.334 393.394 234.417 390.63 234.656 390.446C234.896 390.262 237.533 392.841 240.888 395.973C244.484 398.921 247.36 401.132 247.12 401.316Z" fill="#363A44"/>
<path d="M197.505 426.559C197.265 426.374 200.86 424.163 204.935 421.031C209.01 417.899 211.646 415.135 212.126 415.32C212.365 415.504 209.968 418.636 205.894 421.768C201.819 424.9 197.744 426.743 197.505 426.559Z" fill="#363A44"/>
<path d="M178.66 441.169C174.938 438.568 171.704 436.643 171.437 436.868C171.17 437.094 173.971 439.386 177.693 441.987C181.415 444.587 184.65 446.513 184.917 446.287C185.184 446.061 182.383 443.769 178.66 441.169Z" fill="#363A44"/>
<path d="M229.975 361.271C224.789 363.724 220.753 365.922 220.961 366.182C221.169 366.442 225.542 364.665 230.728 362.213C235.915 359.761 239.95 357.562 239.742 357.302C239.534 357.042 235.161 358.819 229.975 361.271Z" fill="#363A44"/>
<path d="M268.783 361.704C266.253 357.671 263.912 354.509 263.555 354.641C263.197 354.774 264.958 358.151 267.487 362.184C270.017 366.217 272.358 369.379 272.715 369.247C273.073 369.114 271.312 365.737 268.783 361.704Z" fill="#363A44"/>
<path d="M297.287 343.019C294.504 346.601 292.525 349.631 292.866 349.788C293.207 349.945 295.739 347.168 298.522 343.586C301.304 340.004 303.284 336.974 302.943 336.817C302.602 336.661 300.07 339.438 297.287 343.019Z" fill="#363A44"/>
<path d="M258.625 327.249C258.865 327.065 262.7 328.354 267.973 329.276C273.246 330.197 277.561 330.381 277.561 330.75C277.561 330.934 273.006 331.302 267.733 330.197C262.46 329.276 258.625 327.433 258.625 327.249Z" fill="#363A44"/>
<path d="M277.405 294.768C277.756 298.626 278.362 301.736 278.759 301.714C279.155 301.693 279.191 298.549 278.839 294.691C278.488 290.834 277.882 287.724 277.486 287.745C277.089 287.766 277.053 290.911 277.405 294.768Z" fill="#363A44"/>
<path d="M326.541 345.04C324.416 349.318 322.994 352.874 323.365 352.983C323.736 353.092 325.76 349.712 327.885 345.435C330.009 341.157 331.431 337.601 331.06 337.492C330.689 337.383 328.666 340.762 326.541 345.04Z" fill="#363A44"/>
<path d="M329.813 371.653C330.053 371.468 332.689 374.232 334.367 378.286C336.285 382.155 336.524 385.656 336.285 385.656C335.805 385.656 335.086 382.523 333.169 378.654C331.491 374.601 329.573 371.653 329.813 371.653Z" fill="#363A44"/>
<path d="M190.616 307.054C186.22 304.972 182.488 303.496 182.28 303.756C182.072 304.016 185.466 305.914 189.862 307.995C194.257 310.076 197.989 311.552 198.198 311.292C198.406 311.032 195.011 309.135 190.616 307.054Z" fill="#363A44"/>
<path d="M158.915 333.882C158.675 333.698 162.03 331.302 165.146 327.617C168.502 324.117 170.42 320.8 170.659 320.984C170.899 320.984 169.461 324.485 166.105 328.17C162.989 331.855 159.154 334.066 158.915 333.882Z" fill="#363A44"/>
<path d="M124.399 335.172C124.639 334.987 128.714 337.198 133.028 340.331C137.342 343.463 140.219 346.595 139.979 346.595C139.739 346.779 136.384 344.016 132.069 340.883C127.994 337.935 124.399 335.356 124.399 335.172Z" fill="#363A44"/>
<path d="M141.126 302.384C136.272 305.991 132.561 309.093 132.837 309.312C133.113 309.532 137.272 306.786 142.126 303.179C146.98 299.572 150.691 296.47 150.415 296.251C150.139 296.031 145.98 298.777 141.126 302.384Z" fill="#363A44"/>
<path d="M107.551 350.921C109.291 355.193 111.008 358.583 111.387 358.492C111.766 358.401 110.663 354.863 108.923 350.59C107.183 346.318 105.466 342.928 105.087 343.019C104.708 343.11 105.811 346.648 107.551 350.921Z" fill="#363A44"/>
<path d="M128.335 365.51C127.76 370.272 127.615 374.155 128.011 374.183C128.406 374.211 129.192 370.374 129.767 365.612C130.341 360.85 130.486 356.966 130.091 356.938C129.695 356.91 128.909 360.748 128.335 365.51Z" fill="#363A44"/>
<path d="M247.36 301.638C242.326 298.875 235.855 297.769 229.623 298.69C223.87 299.612 218.597 302.191 215.241 305.876L194.388 328.723L81.2552 398C63.7579 408.687 65.4357 429.691 84.6109 438.719C98.0335 444.984 115.531 443.141 125.837 433.929L218.118 353.781L230.102 346.779L244.004 339.041L247.12 315.641C247.12 315.641 255.509 318.589 262.22 320.8C272.527 324.485 276.122 317.852 276.122 317.852L247.36 301.638Z" fill="white"/>
<path fill-rule="evenodd" clip-rule="evenodd" d="M229.55 298.196C235.881 297.26 242.464 298.38 247.6 301.2L247.605 301.203L276.796 317.658L276.562 318.09L276.122 317.852C276.562 318.09 276.562 318.09 276.562 318.09L276.561 318.092L276.56 318.094L276.557 318.1L276.546 318.119C276.537 318.135 276.524 318.157 276.507 318.185C276.474 318.239 276.426 318.316 276.361 318.411C276.232 318.601 276.039 318.862 275.774 319.162C275.246 319.761 274.43 320.515 273.277 321.147C270.952 322.419 267.328 323.156 262.058 321.273C258.701 320.167 254.926 318.877 251.99 317.864C250.522 317.357 249.263 316.92 248.371 316.608C248.038 316.492 247.757 316.394 247.535 316.316L244.467 339.356L230.354 347.211L230.345 347.216L218.41 354.189L126.171 434.301C126.17 434.302 126.169 434.303 126.168 434.304C115.692 443.665 97.9769 445.509 84.3994 439.172L84.3979 439.171C74.6789 434.595 69.3288 426.947 68.6825 419.022C68.0358 411.091 72.1094 403 80.9946 397.573L194.067 328.333L214.872 305.539M247.286 315.17L247.287 315.17L247.659 315.3C247.901 315.385 248.255 315.509 248.7 315.664C249.591 315.975 250.849 316.412 252.317 316.919C255.252 317.932 259.025 319.221 262.377 320.325L262.389 320.329C267.422 322.129 270.747 321.391 272.796 320.269C273.83 319.704 274.557 319.03 275.025 318.5C275.182 318.321 275.31 318.16 275.41 318.024L247.119 302.077C247.118 302.076 247.118 302.076 247.117 302.075C242.187 299.369 235.829 298.279 229.699 299.185C224.034 300.092 218.874 302.629 215.611 306.213L194.71 329.112L81.5163 398.427C72.9042 403.686 69.0676 411.441 69.6792 418.941C70.2913 426.446 75.3674 433.814 84.823 438.266C98.0894 444.458 115.367 442.617 125.504 433.556L125.51 433.551L217.825 353.372L229.85 346.347L229.859 346.342L243.542 338.726L246.706 314.966L247.286 315.17Z" fill="#363A44"/>
<path d="M247.599 316.746C247.359 316.746 246.88 316.194 245.682 315.272C244.483 314.351 243.045 313.061 240.648 312.509C238.491 311.956 236.094 312.509 234.895 313.061C233.697 313.798 233.457 314.535 233.218 314.535C232.978 314.535 232.978 313.614 234.416 312.509C235.615 311.587 238.491 310.85 241.127 311.587C243.764 312.324 245.442 313.798 246.401 314.904C247.359 315.825 247.599 316.562 247.599 316.746Z" fill="#363A44"/>
<path d="M232.738 323.011C232.738 323.011 232.978 322.274 234.176 321.537C235.375 320.8 237.292 320.063 239.45 320.248C241.607 320.248 243.524 320.985 244.723 321.722C245.921 322.459 246.161 323.011 246.161 323.196C245.921 323.38 245.442 322.827 244.243 322.274C243.045 321.722 241.367 321.353 239.45 321.353C237.532 321.353 235.854 321.906 234.656 322.274C233.457 322.643 232.738 323.011 232.738 323.011Z" fill="#363A44"/>
<path d="M329.333 297.032L337.243 303.665C337.243 303.665 339.88 397.079 344.434 409.792C348.988 422.505 376.073 443.878 390.694 426.558C405.315 409.239 368.882 299.058 368.882 299.058C368.882 299.058 359.055 273.632 358.336 267.552L329.333 297.032Z" fill="white"/>
<path fill-rule="evenodd" clip-rule="evenodd" d="M358.71 266.459L358.833 267.493C359.006 268.959 359.739 271.644 360.764 274.889C361.784 278.12 363.077 281.861 364.35 285.417C365.622 288.972 366.872 292.337 367.803 294.815C368.269 296.053 368.656 297.069 368.926 297.776C369.061 298.129 369.166 298.405 369.238 298.592L369.348 298.877C369.348 298.877 369.349 298.878 368.882 299.059C369.357 298.902 369.357 298.902 369.357 298.903L369.383 298.982L369.461 299.219C369.53 299.429 369.632 299.74 369.763 300.146C370.027 300.958 370.411 302.151 370.896 303.675C371.864 306.724 373.231 311.098 374.825 316.401C378.014 327.006 382.114 341.328 385.757 356.195C389.399 371.057 392.588 386.479 393.951 399.277C394.633 405.675 394.86 411.435 394.453 416.15C394.048 420.845 393.008 424.593 391.076 426.881C387.329 431.32 382.764 433.292 377.963 433.532C373.18 433.771 368.192 432.29 363.558 429.881C358.921 427.47 354.609 424.113 351.168 420.558C347.732 417.009 345.134 413.23 343.963 409.96C343.374 408.315 342.829 405.416 342.322 401.648C341.812 397.866 341.335 393.165 340.891 387.888C340.003 377.334 339.246 364.459 338.631 351.985C338.017 339.511 337.545 327.435 337.227 318.477C337.067 313.998 336.947 310.299 336.866 307.719C336.825 306.429 336.795 305.419 336.774 304.732C336.764 304.388 336.756 304.125 336.751 303.948L336.75 303.904L328.597 297.067L358.71 266.459ZM337.243 303.665C337.743 303.651 337.743 303.651 337.743 303.652L337.751 303.919C337.756 304.096 337.764 304.359 337.774 304.702C337.794 305.389 337.825 306.398 337.865 307.688C337.946 310.266 338.067 313.964 338.226 318.442C338.544 327.396 339.016 339.468 339.63 351.936C340.244 364.405 341 377.267 341.887 387.804C342.331 393.073 342.807 397.756 343.313 401.515C343.821 405.289 344.355 408.09 344.905 409.623C346.01 412.71 348.506 416.37 351.886 419.863C355.261 423.349 359.488 426.637 364.02 428.994C368.554 431.352 373.363 432.761 377.913 432.534C382.445 432.307 386.749 430.456 390.312 426.236C392.036 424.194 393.056 420.71 393.456 416.064C393.856 411.439 393.635 405.75 392.957 399.383C391.601 386.651 388.424 371.28 384.785 356.433C381.148 341.589 377.053 327.284 373.868 316.689C372.275 311.392 370.91 307.023 369.943 303.978C369.459 302.456 369.075 301.265 368.812 300.454C368.681 300.049 368.579 299.739 368.511 299.531L368.434 299.295L368.411 299.227L368.305 298.951C368.233 298.763 368.127 298.486 367.991 298.133C367.721 297.425 367.334 296.407 366.868 295.167C365.934 292.686 364.682 289.315 363.408 285.754C362.134 282.193 360.836 278.438 359.81 275.191C358.979 272.558 358.318 270.23 358.001 268.606L330.07 296.997L337.737 303.426L337.743 303.651L337.243 303.665ZM368.882 299.059L369.357 298.902L369.353 298.89L369.349 298.878L368.882 299.059Z" fill="#363A44"/>
<path d="M347.31 242.863L344.194 307.35C343.954 311.956 340.599 316.194 335.565 318.405L310.398 329.644C303.447 332.776 294.578 328.907 294.578 322.642V262.946C294.578 259.629 296.975 256.497 300.81 254.839L338.681 238.625C342.756 236.967 347.55 239.362 347.31 242.863Z" fill="white"/>
<path fill-rule="evenodd" clip-rule="evenodd" d="M338.874 239.086L301.009 255.298C301.009 255.298 301.009 255.298 301.009 255.298C297.301 256.901 295.078 259.884 295.078 262.946V322.642C295.078 325.511 297.11 327.9 300.083 329.209C303.05 330.515 306.856 330.691 310.193 329.188L335.362 317.948L335.364 317.947C340.269 315.792 343.466 311.697 343.695 307.325C343.695 307.325 343.695 307.324 343.695 307.324L346.811 242.829C346.913 241.344 345.953 240.029 344.392 239.257C342.838 238.489 340.772 238.316 338.874 239.086ZM347.809 242.892C347.945 240.878 346.628 239.247 344.835 238.361C343.035 237.471 340.669 237.276 338.493 238.162L300.614 254.379L300.612 254.38C296.651 256.093 294.078 259.375 294.078 262.946V322.642C294.078 326.038 296.482 328.716 299.68 330.124C302.885 331.536 306.988 331.728 310.603 330.1C310.603 330.1 310.603 330.1 310.603 330.1L335.766 318.862C335.767 318.862 335.768 318.862 335.768 318.862C340.928 316.594 344.442 312.215 344.693 307.376L344.694 307.374L347.809 242.897C347.809 242.895 347.809 242.893 347.809 242.892Z" fill="#363A44"/>
<path d="M323.341 266.078C326.386 266.078 328.854 264.18 328.854 261.84C328.854 259.5 326.386 257.602 323.341 257.602C320.296 257.602 317.828 259.5 317.828 261.84C317.828 264.18 320.296 266.078 323.341 266.078Z" fill="#FAFAFA"/>
<path d="M345.632 281.923C345.872 276.396 341.558 277.685 341.558 277.685C336.764 282.107 335.086 286.714 329.334 284.503C323.821 282.476 327.416 274.185 327.416 274.185C325.738 279.896 321.184 281.186 318.308 280.081C313.994 278.238 317.349 273.263 318.787 270.315C320.226 267.552 338.682 260.182 338.682 260.182C338.682 260.182 334.367 256.681 332.689 255.576C331.251 254.654 324.54 259.445 320.945 260.735C317.109 262.024 313.035 260.919 312.316 258.892C311.357 256.865 331.491 247.653 335.805 247.469C339.88 247.284 358.815 269.21 358.815 269.21" fill="white"/>
<path fill-rule="evenodd" clip-rule="evenodd" d="M336.544 248.144C336.211 248.006 335.977 247.961 335.828 247.968L335.827 247.968C335.349 247.989 334.609 248.139 333.655 248.41C332.71 248.679 331.586 249.057 330.354 249.515C327.89 250.43 325.013 251.657 322.297 252.941C319.579 254.227 317.038 255.565 315.242 256.701C314.341 257.271 313.649 257.777 313.218 258.188C313 258.396 312.874 258.557 312.815 258.668C312.8 258.695 312.792 258.714 312.788 258.727C313.062 259.495 314.044 260.215 315.575 260.57C317.07 260.917 318.951 260.876 320.78 260.262C322.136 259.775 323.949 258.776 325.786 257.763C326.322 257.468 326.86 257.171 327.389 256.886C328.543 256.264 329.654 255.697 330.574 255.345C331.034 255.169 331.468 255.037 331.851 254.985C332.218 254.934 332.628 254.942 332.959 255.155L332.964 255.158C333.824 255.724 335.339 256.89 336.624 257.9C337.27 258.408 337.863 258.881 338.294 259.228C338.51 259.401 338.685 259.542 338.807 259.64L338.996 259.793L338.997 259.793L338.682 260.182C338.867 260.646 338.867 260.646 338.867 260.646L338.815 260.667L338.661 260.729C338.526 260.783 338.328 260.864 338.075 260.967C337.568 261.173 336.843 261.471 335.969 261.838C334.219 262.571 331.872 263.576 329.481 264.667C327.089 265.759 324.661 266.933 322.746 268.003C321.788 268.538 320.968 269.042 320.349 269.491C319.711 269.954 319.356 270.31 319.234 270.541C319.052 270.912 318.842 271.313 318.626 271.727L318.62 271.738C318.399 272.16 318.169 272.599 317.947 273.047C317.502 273.948 317.101 274.867 316.874 275.739C316.647 276.614 316.609 277.388 316.833 278.027C317.047 278.642 317.529 279.202 318.496 279.617C320.853 280.518 324.608 279.67 326.462 275.367C326.462 275.366 326.463 275.365 326.463 275.364C326.592 274.948 326.714 274.606 326.805 274.368C326.85 274.248 326.888 274.154 326.914 274.089C326.927 274.057 326.938 274.032 326.945 274.014L326.954 273.994L326.956 273.988L326.957 273.987C326.957 273.987 326.957 273.986 327.416 274.185L326.957 273.986L327.896 274.326C327.752 274.816 327.587 275.277 327.403 275.708C327.163 276.492 326.904 277.535 326.806 278.629C326.704 279.75 326.775 280.886 327.171 281.845C327.558 282.784 328.266 283.577 329.506 284.033L329.513 284.036C330.888 284.564 331.977 284.67 332.907 284.5C333.837 284.33 334.66 283.875 335.488 283.195C336.323 282.509 337.137 281.617 338.064 280.592L338.147 280.499C339.044 279.506 340.038 278.407 341.219 277.318L341.304 277.239L341.415 277.206L341.558 277.685C341.415 277.206 341.414 277.206 341.415 277.206L341.418 277.205L341.422 277.204L341.436 277.2C341.447 277.197 341.463 277.193 341.482 277.188C341.52 277.178 341.574 277.165 341.641 277.151C341.774 277.124 341.962 277.091 342.185 277.072C342.628 277.034 343.237 277.044 343.851 277.26C344.476 277.48 345.096 277.91 345.532 278.683C345.963 279.446 346.195 280.503 346.132 281.945L345.133 281.901C345.19 280.579 344.972 279.725 344.662 279.175C344.357 278.635 343.942 278.352 343.519 278.203C343.085 278.051 342.63 278.037 342.271 278.068C342.094 278.084 341.946 278.109 341.845 278.13C341.83 278.133 341.816 278.136 341.804 278.139C340.697 279.169 339.758 280.208 338.881 281.179L338.805 281.262C337.889 282.275 337.025 283.226 336.123 283.968C335.213 284.715 334.238 285.274 333.086 285.484C331.934 285.694 330.657 285.546 329.158 284.971C327.644 284.413 326.735 283.41 326.246 282.226C325.765 281.06 325.701 279.744 325.81 278.539C325.817 278.452 325.826 278.367 325.836 278.281C323.594 280.902 320.424 281.43 318.129 280.547L318.12 280.544L318.112 280.54C316.927 280.035 316.212 279.284 315.889 278.357C315.572 277.453 315.655 276.454 315.907 275.487C316.159 274.515 316.597 273.523 317.051 272.604C317.279 272.143 317.513 271.695 317.734 271.274L317.736 271.271C317.957 270.849 318.162 270.456 318.338 270.096L318.344 270.085C318.583 269.625 319.119 269.148 319.762 268.682C320.426 268.199 321.284 267.674 322.259 267.13C324.209 266.04 326.665 264.853 329.066 263.757C331.469 262.661 333.827 261.651 335.582 260.915C336.46 260.548 337.188 260.248 337.697 260.041C337.7 260.04 337.703 260.039 337.706 260.037C337.693 260.028 337.681 260.018 337.668 260.008C337.239 259.663 336.648 259.192 336.006 258.686C334.715 257.672 333.237 256.536 332.418 255.996C332.388 255.977 332.272 255.936 331.988 255.975C331.714 256.013 331.36 256.115 330.932 256.279C330.077 256.606 329.016 257.144 327.863 257.766C327.364 258.035 326.847 258.32 326.325 258.608C324.473 259.63 322.552 260.689 321.113 261.205L321.104 261.209C319.099 261.883 317.028 261.934 315.349 261.544C313.713 261.165 312.306 260.326 311.852 259.079C311.711 258.754 311.807 258.431 311.933 258.196C312.066 257.949 312.278 257.704 312.528 257.465C313.031 256.984 313.789 256.437 314.707 255.856C316.552 254.688 319.134 253.331 321.869 252.037C324.607 250.743 327.511 249.505 330.006 248.578C331.253 248.114 332.403 247.727 333.381 247.448C334.349 247.173 335.182 246.995 335.783 246.969C336.144 246.953 336.535 247.058 336.927 247.221C337.326 247.386 337.765 247.629 338.234 247.929C339.17 248.529 340.265 249.388 341.447 250.41C343.812 252.455 346.574 255.191 349.199 257.924C351.826 260.659 354.324 263.398 356.165 265.453C357.086 266.481 357.843 267.338 358.37 267.938C358.633 268.239 358.839 268.475 358.979 268.636L359.139 268.82L359.193 268.882L359.194 268.883C359.194 268.883 359.194 268.883 358.815 269.21C358.437 269.537 358.437 269.537 358.437 269.537L358.383 269.475L358.225 269.292C358.085 269.132 357.88 268.897 357.618 268.598C357.093 268 356.339 267.145 355.421 266.121C353.584 264.071 351.094 261.34 348.478 258.617C345.86 255.891 343.123 253.181 340.793 251.166C339.626 250.158 338.573 249.334 337.694 248.771C337.255 248.489 336.869 248.28 336.544 248.144ZM338.682 260.182L338.867 260.646L339.658 260.33L338.997 259.793L338.682 260.182Z" fill="#363A44"/>
<path d="M344.194 267.736C344.194 267.92 342.756 267.736 340.838 267.92C338.681 268.105 336.045 268.657 333.408 269.947C330.771 271.237 328.854 273.079 327.895 274.369C326.936 275.659 326.457 276.764 326.217 276.764C325.978 276.764 326.217 275.659 327.176 274.185C328.135 272.711 329.813 270.684 332.689 269.21C335.565 267.736 338.681 267.183 340.838 267.183C342.756 267.183 344.194 267.552 344.194 267.736Z" fill="#363A44"/>
<path d="M186.479 136.552V144.843L185.76 269.395C185.76 283.766 201.819 295.374 221.953 295.374C242.326 295.374 259.105 283.397 259.584 268.842C260.063 253.549 260.782 237.335 260.782 237.335C260.782 237.335 286.429 234.387 292.421 208.777C295.298 196.064 295.058 175.059 294.099 157.74C293.14 142.263 275.643 130.471 255.749 131.945L186.479 136.552Z" fill="white"/>
<path fill-rule="evenodd" clip-rule="evenodd" d="M282.304 138.071C289.382 142.835 294.107 149.781 294.598 157.709L294.598 157.712C295.557 175.026 295.803 196.097 292.909 208.887L292.908 208.891C289.872 221.867 281.848 229.109 274.596 233.098C270.973 235.091 267.541 236.273 265.014 236.957C263.75 237.3 262.711 237.518 261.986 237.651C261.692 237.704 261.449 237.744 261.264 237.773L261.25 238.084C261.229 238.557 261.199 239.25 261.162 240.129C261.087 241.888 260.982 244.392 260.862 247.374C260.623 253.338 260.323 261.213 260.084 268.858C259.837 276.333 255.408 283.098 248.517 287.974C241.624 292.853 232.234 295.874 221.953 295.874C211.794 295.874 202.64 292.946 196.014 288.179C189.388 283.413 185.26 276.781 185.26 269.395V269.392L185.979 144.843V136.084L255.712 131.447C255.712 131.447 255.713 131.447 255.714 131.447C265.766 130.702 275.225 133.307 282.304 138.071ZM260.725 236.839L260.728 236.838L260.74 236.837L260.791 236.83C260.837 236.824 260.907 236.815 260.999 236.801C261.183 236.774 261.456 236.731 261.806 236.667C262.507 236.538 263.518 236.326 264.753 235.992C267.222 235.323 270.576 234.168 274.114 232.222C281.182 228.334 288.977 221.299 291.934 208.665C294.792 196.029 294.559 175.094 293.6 157.77C293.132 150.222 288.629 143.534 281.746 138.901C274.863 134.269 265.627 131.715 255.786 132.444L255.782 132.444L186.979 137.019V144.846L186.26 269.395C186.26 269.395 186.26 269.396 186.26 269.396C186.26 276.381 190.162 282.738 196.598 287.368C203.035 291.998 211.978 294.874 221.953 294.874C232.045 294.874 241.23 291.907 247.94 287.158C254.652 282.408 258.851 275.905 259.084 268.825C259.324 261.177 259.624 253.299 259.863 247.334C259.983 244.351 260.088 241.846 260.163 240.086C260.2 239.207 260.23 238.514 260.251 238.04L260.283 237.314C260.283 237.314 260.283 237.313 260.415 237.319L260.283 237.314L260.302 236.887L260.725 236.839Z" fill="#363A44"/>
<path d="M285.949 173.401C285.949 175.059 284.032 176.533 281.635 176.718C279.238 176.718 277.321 175.428 277.321 173.77C277.321 172.111 279.238 170.637 281.635 170.453C284.032 170.453 285.949 171.743 285.949 173.401Z" fill="#363A44"/>
<path d="M287.627 168.611C287.148 168.979 283.792 167.137 279.238 167.137C274.684 166.953 271.088 168.795 270.609 168.426C270.369 168.242 270.849 167.505 272.527 166.584C273.965 165.847 276.601 164.926 279.478 165.11C282.354 165.11 284.751 166.031 286.189 166.953C287.387 167.689 287.867 168.427 287.627 168.611Z" fill="#363A44"/>
<path d="M242.086 172.848C242.086 174.507 240.169 175.981 237.772 176.165C235.375 176.165 233.458 174.875 233.458 173.217C233.458 171.559 235.375 170.085 237.772 169.9C240.169 169.716 242.086 171.19 242.086 172.848Z" fill="#363A44"/>
<path d="M242.326 168.795C241.847 169.163 238.491 167.321 233.937 167.321C229.383 167.137 225.787 168.979 225.308 168.611C225.068 168.426 225.548 167.689 227.226 166.768C228.664 166.031 231.3 165.11 234.176 165.294C237.053 165.294 239.45 166.215 240.888 167.137C242.086 167.689 242.566 168.426 242.326 168.795Z" fill="#363A44"/>
<path d="M258.385 195.327C258.385 195.142 261.261 194.774 265.816 194.405C267.014 194.405 268.213 194.221 268.452 193.484C268.692 192.747 268.212 191.826 267.733 190.721C266.774 188.51 265.576 186.114 264.377 183.719C259.823 173.77 256.468 165.663 256.947 165.478C257.426 165.294 261.741 173.217 266.295 183.166C267.493 185.562 268.452 187.957 269.411 190.168C269.89 191.273 270.609 192.379 269.89 193.668C269.651 194.405 268.692 194.774 267.973 194.958C267.254 195.142 266.535 195.142 266.055 195.142C261.262 195.511 258.385 195.511 258.385 195.327Z" fill="#363A44"/>
<path d="M244.723 197.538C245.442 197.538 245.442 201.407 249.517 204.171C253.831 206.934 259.104 206.566 259.104 207.119C259.104 207.303 257.906 207.856 255.748 207.856C253.591 207.856 250.236 207.303 247.839 205.645C245.202 203.986 244.243 201.591 244.004 200.117C243.764 198.459 244.483 197.538 244.723 197.538Z" fill="#363A44"/>
<path d="M145.971 281.739C173.536 283.398 197.984 268.289 202.059 247.285C202.538 245.074 203.017 243.231 203.497 242.126C207.332 234.572 207.332 226.096 204.695 218.358C203.497 214.673 201.579 210.804 203.737 207.487C205.175 205.092 208.53 203.618 211.167 201.776C217.159 197.722 220.275 191.642 220.994 185.746C221.713 179.666 219.796 173.585 217.159 167.874C215.721 164.742 213.804 161.241 215.242 158.109C216.44 155.898 218.837 154.424 221.234 152.765C226.028 149.449 230.102 145.396 233.218 140.974C236.334 136.367 238.252 130.656 230.342 126.971C228.664 126.234 226.747 125.681 224.829 125.497C210.688 123.838 193.909 125.497 184.322 133.972C176.652 140.974 175.453 150.739 174.734 159.951C172.337 188.694 110.258 242.31 134.227 281.739H145.971Z" fill="#363A44"/>
<path d="M243.765 154.792C243.285 155.713 238.731 155.161 233.218 155.713C227.706 156.082 223.391 157.187 222.672 156.266C222.432 155.898 223.151 154.976 224.829 154.055C226.507 153.134 229.383 152.213 232.739 152.028C236.095 151.844 238.971 152.213 240.888 152.95C243.046 153.502 244.004 154.424 243.765 154.792Z" fill="#363A44"/>
<path d="M286.19 158.293C285.471 159.03 282.115 158.293 278.28 158.109C274.445 157.924 271.089 158.477 270.37 157.74C270.131 157.372 270.61 156.45 272.048 155.713C273.486 154.976 275.883 154.424 278.52 154.424C281.156 154.608 283.314 155.345 284.752 156.082C286.19 157.187 286.669 157.924 286.19 158.293Z" fill="#363A44"/>
<path d="M409.39 179.85C412.037 179.85 414.184 178.2 414.184 176.165C414.184 174.13 412.037 172.48 409.39 172.48C406.742 172.48 404.596 174.13 404.596 176.165C404.596 178.2 406.742 179.85 409.39 179.85Z" fill="#363A44"/>
<path d="M428.325 179.85C430.973 179.85 433.119 178.2 433.119 176.165C433.119 174.13 430.973 172.48 428.325 172.48C425.677 172.48 423.531 174.13 423.531 176.165C423.531 178.2 425.677 179.85 428.325 179.85Z" fill="#363A44"/>
<path d="M447.74 179.85C450.388 179.85 452.534 178.2 452.534 176.165C452.534 174.13 450.388 172.48 447.74 172.48C445.092 172.48 442.946 174.13 442.946 176.165C442.946 178.2 445.092 179.85 447.74 179.85Z" fill="#363A44"/>
<path d="M428.565 133.972C428.565 133.972 428.804 133.972 429.524 133.972C430.243 133.972 431.201 133.972 432.4 133.972C433.119 133.972 433.598 133.972 434.557 133.972C435.276 133.972 436.235 134.156 436.954 134.156C437.913 134.34 438.872 134.34 439.83 134.525C440.789 134.709 441.987 134.893 442.946 135.077C447.5 135.999 453.013 137.473 458.526 140.236C464.039 143 470.031 146.869 474.585 152.213C479.139 157.556 482.735 164.373 483.693 171.927C483.693 173.77 484.173 175.796 483.933 177.639C483.933 178.56 483.933 179.666 483.693 180.587C483.454 181.508 483.214 182.614 483.214 183.535C482.255 187.404 480.577 191.457 477.941 195.327C475.304 199.196 471.948 202.697 467.874 205.829C463.799 208.961 458.766 211.725 453.492 213.751C448.219 215.778 442.227 217.252 435.995 217.805C434.557 217.989 432.879 217.989 431.201 218.173C429.524 218.173 428.085 218.358 426.408 218.173C423.292 217.989 420.176 217.805 416.82 217.252C410.109 216.147 403.637 213.936 397.885 211.172H398.364C391.892 213.199 385.421 215.225 379.189 217.068L377.99 217.436L378.23 216.515C380.148 211.172 382.065 205.829 383.983 200.67V201.038C378.47 195.511 375.114 189.246 373.676 182.982C372.957 179.85 372.717 176.718 372.957 173.77C372.957 172.296 373.197 170.822 373.436 169.348C373.676 168.611 373.676 167.874 373.916 167.137C374.155 166.4 374.395 165.663 374.635 165.11C378.47 154.055 387.338 145.764 396.207 140.973C400.521 138.578 405.075 136.92 408.91 135.814C409.869 135.63 410.828 135.262 411.787 135.077C412.745 134.893 413.704 134.709 414.423 134.525C415.382 134.34 416.101 134.156 416.82 133.972C417.539 133.788 418.498 133.788 419.217 133.788C420.655 133.603 421.854 133.419 423.052 133.419C424.25 133.419 425.209 133.419 425.928 133.419C426.647 133.419 427.127 133.419 427.606 133.419C428.325 133.972 428.565 133.972 428.565 133.972C428.565 133.972 428.325 133.972 428.085 133.972C427.606 133.972 427.127 133.972 426.408 134.156C425.689 134.156 424.73 134.156 423.531 134.34C422.333 134.34 421.134 134.709 419.696 134.709C413.944 135.446 405.555 137.288 396.926 142.079C388.297 146.869 379.668 154.976 376.073 165.847C375.833 166.584 375.594 167.137 375.354 167.874C375.114 168.611 375.114 169.348 374.874 170.085C374.635 171.559 374.395 173.033 374.395 174.507C374.155 177.455 374.395 180.587 375.114 183.535C376.552 189.615 379.908 195.879 385.181 201.223L385.421 201.407V201.591C383.503 206.75 381.826 211.909 379.908 217.436L378.949 216.884C385.181 214.857 391.653 213.015 398.124 210.988L398.364 210.804L398.604 210.988C404.117 213.751 410.349 215.778 417.06 216.884C420.176 217.436 423.292 217.621 426.408 217.805C427.846 217.805 429.524 217.805 430.962 217.805C432.4 217.805 434.078 217.805 435.516 217.436C441.508 216.884 447.5 215.41 452.773 213.383C458.047 211.356 462.84 208.593 466.915 205.645C470.99 202.512 474.106 199.012 476.742 195.327C479.379 191.642 480.817 187.588 482.015 183.719C482.255 182.798 482.495 181.692 482.495 180.771C482.735 179.85 482.735 178.744 482.735 177.823C482.974 175.981 482.735 173.954 482.735 172.111C481.776 164.741 478.42 158.108 473.866 152.765C469.312 147.422 463.559 143.553 458.047 140.789C452.534 138.025 447.261 136.367 442.706 135.446C441.508 135.262 440.549 135.077 439.59 134.709C438.632 134.525 437.673 134.525 436.714 134.34C435.755 134.156 435.036 134.156 434.317 133.972C433.598 133.972 432.879 133.972 432.16 133.788C430.962 133.788 430.003 133.603 429.284 133.603C428.805 133.972 428.565 133.972 428.565 133.972Z" fill="#363A44"/>
</svg>
